<svg width="56" height="56" viewBox="0 0 56 56" fill="none" xmlns="http://www.w3.org/2000/svg">
<rect width="56" height="56" rx="16" fill="#D7FFC6"/>
<path d="M41.7159 12.4443L39.2167 40.4411L27.983 43.5554L16.7802 40.4455L14.2837 12.4443H41.7159Z" fill="black"/>
<path d="M37.0774 38.6584L39.2131 14.7339H28V41.175L37.0774 38.6584Z" fill="black"/>
<path d="M20.0068 25.1191L20.3146 28.5533H27.9998V25.1191H20.0068Z" fill="#D7FFC6"/>
<path d="M27.9996 18.168H27.9877H19.3882L19.7004 21.6022H27.9996V18.168Z" fill="#D7FFC6"/>
<path d="M28 37.6112V34.0382L27.9849 34.0422L24.1602 33.0095L23.9157 30.2705H22.0572H20.4683L20.9494 35.6627L27.9841 37.6156L28 37.6112Z" fill="#D7FFC6"/>
<path d="M32.2167 28.5531L31.818 33.007L27.9878 34.0408V37.6137L35.0281 35.6625L35.0798 35.0823L35.8868 26.0411L35.9706 25.1189L36.5906 18.168H27.9878V21.6022H32.827L32.5145 25.1189H27.9878V28.5531H32.2167Z" fill="#D7FFC6"/>
</svg>
