<svg width="56" height="56" viewBox="0 0 56 56" fill="none" xmlns="http://www.w3.org/2000/svg">
<rect width="56" height="56" rx="16" fill="#D7FFC6"/>
<path d="M22.8146 43.5554C25.6768 43.5554 27.9998 41.2325 27.9998 38.3702V33.1851H22.8146C19.9524 33.1851 17.6294 35.508 17.6294 38.3702C17.6294 41.2325 19.9524 43.5554 22.8146 43.5554Z" fill="black"/>
<path d="M17.6294 27.9996C17.6294 25.1374 19.9524 22.8145 22.8146 22.8145H27.9998V33.1848H22.8146C19.9524 33.1848 17.6294 30.8618 17.6294 27.9996Z" fill="black"/>
<path d="M17.6294 17.6295C17.6294 14.7673 19.9524 12.4443 22.8146 12.4443H27.9998V22.8147H22.8146C19.9524 22.8147 17.6294 20.4917 17.6294 17.6295Z" fill="black"/>
<path d="M28 12.4443H33.1852C36.0474 12.4443 38.3704 14.7673 38.3704 17.6295C38.3704 20.4917 36.0474 22.8147 33.1852 22.8147H28V12.4443Z" fill="black"/>
<path d="M38.3704 27.9996C38.3704 30.8618 36.0474 33.1848 33.1852 33.1848C30.323 33.1848 28 30.8618 28 27.9996C28 25.1374 30.323 22.8145 33.1852 22.8145C36.0474 22.8145 38.3704 25.1374 38.3704 27.9996Z" fill="black"/>
</svg>
