<svg width="57" height="56" viewBox="0 0 57 56" fill="none" xmlns="http://www.w3.org/2000/svg">
<rect width="56.3129" height="56" rx="16" fill="#D7FFC6"/>
<path d="M43.2091 26.6137L29.5498 13.031C28.7636 12.2488 27.4878 12.2488 26.7006 13.031L23.8642 15.8517L27.4624 19.4298C28.2985 19.1489 29.2573 19.3374 29.9238 20.0002C30.5935 20.6672 30.7817 21.6289 30.4924 22.4631L33.96 25.9115C34.7989 25.6241 35.7669 25.8101 36.437 26.4775C37.3734 27.4084 37.3734 28.9172 36.437 29.8487C35.5003 30.7803 33.9831 30.7803 33.0459 29.8487C32.3415 29.1474 32.1674 28.1187 32.524 27.2557L29.2902 24.0399L29.2898 32.5027C29.5243 32.618 29.7384 32.7702 29.9238 32.9536C30.8603 33.8845 30.8603 35.3934 29.9238 36.3256C28.9871 37.2568 27.4692 37.2568 26.5338 36.3256C25.5974 35.3934 25.5974 33.8846 26.5338 32.9537C26.7583 32.7304 27.025 32.5536 27.3185 32.4334V23.8917C27.0245 23.7724 26.7577 23.5955 26.5338 23.3715C25.8243 22.6669 25.6537 21.6316 26.0173 20.7652L22.4703 17.2376L13.1044 26.5509C12.3174 27.3339 12.3174 28.6028 13.1044 29.3852L26.7639 42.9681C27.5503 43.7505 28.8259 43.7505 29.6133 42.9681L43.2089 29.4482C43.9957 28.6656 43.9957 27.396 43.2089 26.6137" fill="black"/>
</svg>
