<svg width="57" height="56" viewBox="0 0 57 56" fill="none" xmlns="http://www.w3.org/2000/svg">
<rect width="56.3129" height="56" rx="16" fill="#D7FFC6"/>
<path d="M28.1567 12.8286C19.5187 12.8286 12.5142 19.793 12.5142 28.3842C12.5142 35.2572 16.9962 41.0881 23.2115 43.145C23.9932 43.289 24.2803 42.8076 24.2803 42.3967C24.2803 42.0258 24.2657 40.8003 24.2591 39.5005C19.9072 40.4415 18.9889 37.6651 18.9889 37.6651C18.2774 35.8671 17.2521 35.3891 17.2521 35.3891C15.8329 34.4236 17.3591 34.4434 17.3591 34.4434C18.9299 34.5532 19.757 36.0464 19.757 36.0464C21.1522 38.4246 23.4164 37.737 24.309 37.3396C24.4494 36.3341 24.8548 35.648 25.3021 35.2595C21.8278 34.8661 18.1753 33.5323 18.1753 27.5718C18.1753 25.8736 18.7864 24.4858 19.7871 23.3965C19.6247 23.0046 19.0893 21.4225 19.9386 19.2799C19.9386 19.2799 21.2522 18.8618 24.2414 20.8744C25.4891 20.5296 26.8273 20.3569 28.1567 20.351C29.4861 20.3569 30.8253 20.5296 32.0754 20.8744C35.0611 18.8618 36.3728 19.2799 36.3728 19.2799C37.2242 21.4225 36.6886 23.0046 36.5261 23.3965C37.5291 24.4858 38.136 25.8735 38.136 27.5718C38.136 33.5464 34.4766 34.8621 30.9934 35.2471C31.5545 35.7298 32.0544 36.6766 32.0544 38.1278C32.0544 40.2091 32.0362 41.8843 32.0362 42.3967C32.0362 42.8106 32.3178 43.2957 33.1108 43.1429C39.3227 41.0837 43.7991 35.2549 43.7991 28.3842C43.7991 19.793 36.7955 12.8286 28.1567 12.8286Z" fill="black"/>
<path d="M18.3726 34.9879C18.3382 35.0651 18.2158 35.0883 18.1045 35.0354C17.991 34.9846 17.9272 34.8792 17.964 34.8016C17.9978 34.7221 18.1202 34.6999 18.2335 34.7533C18.3472 34.8039 18.412 34.9103 18.3726 34.9879V34.9879ZM19.142 35.6706C19.0674 35.7394 18.9216 35.7075 18.8226 35.5988C18.7203 35.4903 18.7011 35.3454 18.7768 35.2755C18.8537 35.2068 18.9952 35.2389 19.0978 35.3474C19.2001 35.4571 19.2199 35.6012 19.1419 35.6707L19.142 35.6706ZM19.6699 36.5441C19.574 36.6104 19.4172 36.5483 19.3204 36.4099C19.2246 36.2717 19.2246 36.1058 19.3225 36.0393C19.4197 35.9728 19.574 36.0326 19.6721 36.1698C19.7678 36.3105 19.7678 36.4764 19.6698 36.5443L19.6699 36.5441ZM20.5626 37.5559C20.4768 37.6498 20.2943 37.6247 20.1605 37.4963C20.0239 37.3709 19.9857 37.1929 20.0717 37.0989C20.1585 37.0047 20.3421 37.0312 20.4768 37.1584C20.6126 37.2836 20.6541 37.4629 20.5627 37.5559H20.5626ZM21.7163 37.8975C21.6786 38.0192 21.5027 38.0746 21.3255 38.0229C21.1486 37.9696 21.0328 37.8268 21.0685 37.7037C21.1053 37.5811 21.282 37.5234 21.4605 37.5788C21.6371 37.6319 21.7532 37.7735 21.7164 37.8975H21.7163ZM23.0295 38.0423C23.0339 38.1706 22.8836 38.277 22.6976 38.2793C22.5105 38.2834 22.3592 38.1795 22.3573 38.0534C22.3573 37.9238 22.5041 37.8184 22.6911 37.8154C22.8771 37.8117 23.0295 37.9148 23.0295 38.0423V38.0423ZM24.3193 37.9931C24.3417 38.1183 24.2124 38.2469 24.0277 38.2811C23.8462 38.314 23.6781 38.2368 23.6549 38.1127C23.6323 37.9843 23.7641 37.8559 23.9453 37.8226C24.1303 37.7906 24.2958 37.8659 24.3193 37.9931" fill="black"/>
</svg>
