<svg width="56" height="56" viewBox="0 0 56 56" fill="none" xmlns="http://www.w3.org/2000/svg">
<rect width="56" height="56" rx="16" fill="#D7FFC6"/>
<path d="M16.7778 40.4549L14.2822 12.4443H41.7181L39.2225 40.4398L27.9775 43.5554" fill="black"/>
<path d="M28 41.1737V14.7437H39.2148L37.0747 38.6404" fill="black"/>
<path d="M19.3794 18.1689H28.0004V21.6022H23.1454L23.463 25.1187H28.0004V28.5444H20.3171L19.3794 18.1689ZM20.4684 30.2685H23.9167L24.1587 33.0136L28.0004 34.0421V37.6266L20.9523 35.6604" fill="#D7FFC6"/>
<path d="M36.5907 18.1689H27.9849V21.6022H36.2731L36.5907 18.1689ZM35.963 25.1187H27.9849V28.5519H32.2197L31.8189 33.0137L27.9849 34.0421V37.6115L35.0178 35.6604" fill="#D7FFC6"/>
</svg>
