<svg width="57" height="56" viewBox="0 0 57 56" fill="none" xmlns="http://www.w3.org/2000/svg">
<rect width="56.3129" height="56" rx="16" fill="#D7FFC6"/>
<path d="M40.5369 18.4922C38.6459 16.057 36.0711 14.2342 33.1383 13.2543C30.2054 12.2744 27.0462 12.1815 24.0602 12.9872C21.0742 13.7929 18.3956 15.4611 16.3631 17.7808C14.3305 20.1005 13.0354 22.9675 12.6415 26.0192C12.2476 29.071 12.7725 32.1703 14.15 34.9253C15.5275 37.6803 17.6956 39.9672 20.3802 41.4968C23.0647 43.0264 26.1451 43.7299 29.2317 43.5184C32.3184 43.3069 35.2726 42.1899 37.7208 40.3086C44.5546 35.0567 45.8157 25.2904 40.5364 18.4922H40.5369Z" fill="black"/>
<path d="M33.4322 22.3557L26.8365 28.9668L24.9727 27.0612C31.4642 20.6057 32.1158 21.189 33.4327 22.3557H33.4322Z" fill="#D7FFC6"/>
<path d="M26.8367 29.1478C26.7783 29.1464 26.7225 29.1233 26.6803 29.0832L24.8032 27.2165C24.7609 27.173 24.7373 27.1149 24.7373 27.0544C24.7373 26.9939 24.7609 26.9358 24.8032 26.8923C31.2033 20.5277 32.0769 20.8257 33.5888 22.1868C33.6141 22.2069 33.6344 22.2327 33.6479 22.2619C33.6615 22.2912 33.668 22.3232 33.667 22.3555C33.6768 22.4187 33.6523 22.4833 33.602 22.5241L27.0063 29.0837C26.9601 29.1258 26.8994 29.1489 26.8367 29.1483V29.1478ZM25.2984 27.061L26.8367 28.5907L33.0936 22.3686C32.8776 22.0993 32.5693 21.9188 32.2278 21.8614C31.8863 21.804 31.5355 21.8738 31.2424 22.0575C30.1084 22.563 28.2836 24.1054 25.2984 27.061V27.061Z" fill="black"/>
<path d="M28.7271 30.7943L26.9282 28.9666L33.5239 22.4849C35.2969 24.2091 32.6636 27.0868 28.7271 30.7938V30.7943Z" fill="#D7FFC6"/>
<path d="M28.727 31.0279C28.6693 31.0233 28.6145 31.0007 28.5706 30.9632L26.7326 29.1744C26.705 29.1079 26.705 29.0333 26.7326 28.9668C26.713 28.9122 26.713 28.8527 26.7326 28.7981L33.3283 22.2391C33.3741 22.1962 33.4347 22.1724 33.4977 22.1724C33.5606 22.1724 33.6212 22.1962 33.667 22.2391C33.8806 22.4346 34.0494 22.6735 34.1618 22.9397C34.2743 23.2058 34.3277 23.493 34.3186 23.7815C34.3186 25.5315 32.311 27.735 28.8961 30.9501C28.8505 30.995 28.7905 31.0225 28.7265 31.0279H28.727ZM27.2669 28.9668L28.7397 30.4309C31.3466 27.981 33.8367 25.4532 33.8494 23.7421C33.8635 23.3794 33.743 23.0241 33.5106 22.7441L27.2669 28.9668Z" fill="black"/>
<path d="M25.0246 27.1L26.3283 28.3964C26.3366 28.4037 26.3433 28.4127 26.3479 28.4228C26.3524 28.4328 26.3548 28.4437 26.3548 28.4548C26.3548 28.4658 26.3524 28.4767 26.3479 28.4868C26.3433 28.4968 26.3366 28.5058 26.3283 28.5131L23.5777 29.0964C23.5222 29.1083 23.4643 29.1019 23.4128 29.078C23.3613 29.0542 23.319 29.0143 23.2925 28.9643C23.2659 28.9144 23.2565 28.8572 23.2656 28.8015C23.2747 28.7457 23.3019 28.6945 23.3431 28.6555L24.9464 27.0742C24.9464 27.0742 24.9987 27.0742 25.0246 27.1Z" fill="#D7FFC6"/>
<path d="M23.5128 29.3559C23.4259 29.3548 23.3407 29.3316 23.2654 29.2884C23.1901 29.2453 23.1272 29.1837 23.0826 29.1094C23.0325 29.0154 23.0143 28.9078 23.0308 28.8027C23.0473 28.6975 23.0975 28.6005 23.1741 28.5261L24.7642 26.9317C24.8215 26.8807 24.8958 26.8525 24.9727 26.8525C25.0496 26.8525 25.1238 26.8807 25.1811 26.9317L26.4848 28.2281C26.5621 28.3011 26.5924 28.4114 26.563 28.5135C26.5337 28.6156 26.4477 28.6967 26.3416 28.721L23.591 29.3044L23.5128 29.3559ZM24.9729 27.3857L23.5001 28.8504L25.9378 28.3317L24.9729 27.3857Z" fill="black"/>
<path d="M36.9393 18.7129C35.9958 17.8077 34.5137 17.7698 33.5243 18.6239C32.5349 19.478 32.3658 20.9441 33.1361 21.9989C33.9065 23.0538 35.3589 23.3493 36.4832 22.6795L34.7102 20.9164L36.9393 18.7129Z" fill="#D7FFC6"/>
<path d="M35.1793 23.2754C34.6372 23.2685 34.1092 23.1031 33.6611 22.7999C33.2129 22.4967 32.8643 22.069 32.6589 21.5702C32.4536 21.0717 32.3997 20.5243 32.5039 19.9957C32.6082 19.4671 32.866 18.9805 33.2455 18.5961C33.7674 18.0867 34.4695 17.8013 35.2008 17.8013C35.9321 17.8013 36.6342 18.0867 37.1561 18.5961C37.2059 18.638 37.2343 18.6997 37.2343 18.7648C37.2342 18.7969 37.2271 18.8285 37.2136 18.8576C37.2001 18.8867 37.1805 18.9126 37.1561 18.9335L35.0443 20.9168L36.6477 22.4855C36.6737 22.5102 36.6932 22.5408 36.7045 22.5747C36.7158 22.6086 36.7187 22.6447 36.7127 22.6799C36.7089 22.7139 36.6975 22.7467 36.6795 22.7758C36.6615 22.8049 36.6373 22.8298 36.6086 22.8486C36.1778 23.1164 35.6827 23.2641 35.1749 23.2764L35.1793 23.2754ZM35.1793 18.2457C34.2505 18.2505 33.4195 18.8061 33.071 19.6554C32.7224 20.5046 32.9121 21.4822 33.5632 22.1345C33.8871 22.4585 34.3018 22.6776 34.753 22.7632C35.2042 22.8488 35.6709 22.7969 36.0919 22.6143L34.5536 21.0845C34.5291 21.0651 34.5094 21.0404 34.4958 21.0124C34.4822 20.9843 34.4752 20.9536 34.4752 20.9224C34.4752 20.8913 34.4822 20.8605 34.4958 20.8325C34.5094 20.8044 34.5291 20.7797 34.5536 20.7603L36.5871 18.725C36.1829 18.4169 35.6885 18.2484 35.1793 18.2452V18.2457Z" fill="black"/>
<path d="M36.978 18.752L34.749 20.9555L36.522 22.7186C36.7004 22.6167 36.8665 22.4949 37.0171 22.3555C37.4818 21.867 37.7375 21.2182 37.7302 20.5458C37.7229 19.8735 37.4532 19.2303 36.978 18.752V18.752Z" fill="#D7FFC6"/>
<path d="M36.4829 22.9127C36.4536 22.9143 36.4243 22.9093 36.3972 22.8981C36.3702 22.8869 36.346 22.8698 36.3264 22.848L34.5535 21.0849C34.529 21.0655 34.5093 21.0408 34.4957 21.0127C34.4821 20.9847 34.4751 20.9539 34.4751 20.9228C34.4751 20.8917 34.4821 20.8609 34.4957 20.8329C34.5093 20.8048 34.529 20.7801 34.5535 20.7607L36.7693 18.5961C36.7907 18.564 36.8198 18.5376 36.8539 18.5194C36.888 18.5012 36.9261 18.4917 36.9648 18.4917C37.0036 18.4917 37.0417 18.5012 37.0758 18.5194C37.1099 18.5376 37.139 18.564 37.1604 18.5961C37.4205 18.8495 37.6272 19.152 37.7682 19.4859C37.9093 19.8198 37.982 20.1783 37.982 20.5405C37.982 20.9026 37.9093 21.2612 37.7682 21.595C37.6272 21.9289 37.4205 22.2315 37.1604 22.4849C37.0069 22.6468 36.8313 22.7864 36.6388 22.8996C36.5903 22.9239 36.5343 22.9286 36.4824 22.9127H36.4829ZM35.0491 20.9167L36.522 22.3814C36.6233 22.3108 36.7192 22.2328 36.8089 22.148C37.2419 21.7187 37.4857 21.1359 37.4869 20.5278C37.4879 19.9837 37.2884 19.458 36.9262 19.0501L35.0491 20.9167Z" fill="black"/>
<path d="M33.7062 22.6277C33.5297 22.4629 33.2966 22.3711 33.0544 22.3711C32.8122 22.3711 32.5791 22.4629 32.4025 22.6277L26.498 28.4863L27.4757 29.4717L33.7194 24.0273C33.8147 23.9365 33.8902 23.8273 33.9414 23.7065C33.9926 23.5856 34.0183 23.4556 34.0171 23.3244C34.0159 23.1933 33.9876 23.0638 33.9342 22.9439C33.8807 22.824 33.8031 22.7162 33.7062 22.6273V22.6277Z" fill="#D7FFC6"/>
<path d="M27.4231 29.7058C27.3647 29.7043 27.3089 29.6813 27.2667 29.6411L26.2758 28.6558C26.2336 28.6123 26.21 28.5541 26.21 28.4936C26.21 28.4332 26.2336 28.375 26.2758 28.3315L32.1808 22.4851C32.3509 22.3162 32.5681 22.202 32.8042 22.1573C33.0404 22.1126 33.2846 22.1395 33.5052 22.2344C33.7258 22.3294 33.9126 22.4881 34.0414 22.69C34.1702 22.8918 34.235 23.1275 34.2275 23.3664C34.2207 23.5286 34.1815 23.6878 34.1121 23.8347C34.0427 23.9816 33.9445 24.1133 33.8233 24.222L27.5795 29.6664C27.5341 29.6983 27.4783 29.7122 27.4231 29.7053V29.7058ZM26.7324 28.4866L27.384 29.1477L33.5104 23.8457C33.662 23.7145 33.7524 23.5268 33.7582 23.3271C33.7641 23.1273 33.6849 22.9319 33.5368 22.7957C33.4 22.6603 33.2149 22.5842 33.0218 22.5842C32.8288 22.5842 32.6436 22.6603 32.5069 22.7957L26.7324 28.4866Z" fill="black"/>
<path d="M21.9227 35.1625C21.906 35.185 21.897 35.2123 21.897 35.2403C21.897 35.2682 21.906 35.2955 21.9227 35.318L22.1832 36.4458C22.1937 36.5122 22.1838 36.5801 22.1548 36.6408C22.1259 36.7015 22.0792 36.7521 22.0209 36.7861C21.9629 36.8199 21.8955 36.8344 21.8286 36.8277C21.7616 36.821 21.6986 36.7933 21.6485 36.7487L19.8628 35.0376L25.429 29.4585H27.3584L28.6621 30.7549C26.6284 32.5231 24.3609 34.0061 21.9227 35.1625V35.1625Z" fill="#D7FFC6"/>
<path d="M21.8053 37.0681C21.6577 37.0652 21.512 37.0049 21.4143 36.8994L19.7068 35.2015C19.6823 35.182 19.6626 35.1573 19.649 35.1293C19.6355 35.1012 19.6284 35.0705 19.6284 35.0393C19.6284 35.0082 19.6355 34.9775 19.649 34.9494C19.6626 34.9213 19.6823 34.8967 19.7068 34.8772L25.3116 29.2904C25.343 29.2572 25.384 29.2346 25.429 29.2257H27.371C27.4217 29.208 27.4769 29.208 27.5275 29.2257L28.8312 30.5222C28.8559 30.5449 28.8748 30.5733 28.8861 30.6049C28.8975 30.6365 28.9009 30.6703 28.8962 30.7035C28.8971 30.7357 28.8905 30.7677 28.8769 30.797C28.8634 30.8262 28.8432 30.852 28.818 30.8722L28.7138 30.9631C26.672 32.6559 24.4256 34.0885 22.0267 35.2277L22.2746 36.2777C22.2937 36.3587 22.2945 36.4429 22.2767 36.5242C22.259 36.6056 22.2232 36.6819 22.172 36.7477C22.1208 36.8135 22.0555 36.8672 21.9808 36.9047C21.9061 36.9422 21.824 36.9627 21.7403 36.9646L21.8053 37.0681ZM20.2152 35.0328L21.753 36.5752C21.7673 36.5879 21.7859 36.5949 21.8051 36.5949C21.8243 36.5949 21.8428 36.5879 21.8571 36.5752C21.8667 36.562 21.8719 36.5461 21.8719 36.5297C21.8719 36.5134 21.8667 36.4975 21.8571 36.4843L21.5966 35.3565C21.5761 35.2756 21.5843 35.1901 21.6199 35.1145C21.6556 35.0389 21.7164 34.9779 21.7921 34.9419C24.1265 33.8179 26.315 32.4162 28.3096 30.7677L27.2405 29.7046H25.494L20.2152 35.0328Z" fill="black"/>
<path d="M18.5203 36.3682L19.824 35.0718L21.8316 37.0682L18.6381 36.848C18.5833 36.8437 18.5312 36.8223 18.4893 36.7869C18.4474 36.7514 18.4179 36.7037 18.4049 36.6506C18.3919 36.5975 18.3961 36.5416 18.4169 36.491C18.4377 36.4404 18.4741 36.3976 18.5208 36.3687L18.5203 36.3682Z" fill="#D7FFC6"/>
<path d="M21.8704 37.2626L18.6897 37.0423C18.501 37.0248 18.3387 36.8965 18.2722 36.7249C18.2057 36.5533 18.2463 36.3496 18.3768 36.2126L19.6805 34.9161C19.7243 34.8741 19.7827 34.8506 19.8435 34.8506C19.9044 34.8506 19.9628 34.8741 20.0066 34.9161L22.0009 36.8994C22.0286 36.937 22.0434 36.9824 22.0434 37.029C22.0434 37.0755 22.0286 37.1209 22.0009 37.1585C21.9708 37.207 21.9247 37.2436 21.8704 37.2621V37.2626ZM18.6897 36.5368L21.2966 36.7055L19.8628 35.3701L18.6897 36.5368Z" fill="black"/>
<path d="M27.5405 29.6152L24.9072 30.0172L26.4323 28.5137L27.5405 29.6152Z" fill="#D7FFC6"/>
<path d="M24.9072 30.2628C24.8634 30.2639 24.8203 30.2522 24.7832 30.2292C24.7461 30.2061 24.7166 30.1726 24.6985 30.133C24.6707 30.0955 24.6558 30.0501 24.6558 30.0035C24.6558 29.9569 24.6707 29.9115 24.6985 29.8739L26.2104 28.3572C26.2563 28.3144 26.3168 28.2905 26.3798 28.2905C26.4427 28.2905 26.5033 28.3144 26.5491 28.3572L27.6578 29.4588C27.6799 29.4937 27.6917 29.5342 27.6917 29.5754C27.6917 29.6167 27.6799 29.6572 27.6578 29.6921C27.6469 29.7347 27.6239 29.7732 27.5916 29.8032C27.5593 29.8331 27.5189 29.8531 27.4755 29.8608L24.8686 30.2628H24.9072ZM26.4323 28.8497L25.5852 29.6921L27.0453 29.4719L26.4323 28.8497Z" fill="black"/>
<path d="M27.5405 29.6142L25.7026 29.8476C25.6534 29.8587 25.6019 29.8537 25.5558 29.8334C25.5097 29.8132 25.4713 29.7786 25.4465 29.735C25.4216 29.6913 25.4116 29.6409 25.4178 29.5911C25.4241 29.5413 25.4463 29.4949 25.4811 29.4587L26.4329 28.5122L27.5405 29.6142Z" fill="#D7FFC6"/>
<path d="M25.6503 30.0947C25.5651 30.0939 25.4816 30.0706 25.4084 30.0273C25.3351 29.9841 25.2747 29.9222 25.2333 29.8482C25.1835 29.7595 25.1642 29.657 25.1783 29.5564C25.1924 29.4558 25.2392 29.3624 25.3115 29.2907L26.2632 28.3442C26.3091 28.3013 26.3697 28.2775 26.4326 28.2775C26.4956 28.2775 26.5561 28.3013 26.602 28.3442L27.7102 29.4462C27.7431 29.4773 27.7663 29.5171 27.7769 29.561C27.7875 29.6049 27.7851 29.651 27.7699 29.6935C27.7548 29.7361 27.7275 29.7733 27.6915 29.8008C27.6555 29.8282 27.6122 29.8447 27.5669 29.8482L25.7422 30.0815L25.6503 30.0947ZM25.6503 29.6149L27.0322 29.4462L26.4197 28.8371L25.6375 29.6149H25.6503ZM36.9909 20.2427C36.9664 20.2018 36.9276 20.1713 36.8819 20.157C36.8362 20.1426 36.7868 20.1455 36.7431 20.1649C36.7215 20.1758 36.7024 20.1909 36.6867 20.2093C36.6711 20.2276 36.6594 20.2489 36.6522 20.2719C36.6377 20.3182 36.6422 20.3684 36.6649 20.4114C36.7563 20.6024 36.7309 20.8285 36.5999 20.9947C36.5836 21.0107 36.5709 21.0299 36.5624 21.0511C36.554 21.0723 36.5501 21.095 36.551 21.1177C36.5515 21.1633 36.5689 21.2071 36.5999 21.2407C36.6333 21.2538 36.6705 21.2538 36.704 21.2407C36.7344 21.2483 36.7662 21.2475 36.7961 21.2383C36.826 21.2291 36.8528 21.212 36.8736 21.1887C36.981 21.058 37.0489 20.8998 37.0697 20.7323C37.0905 20.5648 37.0631 20.3949 36.9909 20.2422V20.2427Z" fill="black"/>
</svg>
