<svg width="458" height="125" viewBox="0 0 458 125" fill="none" xmlns="http://www.w3.org/2000/svg">
<path d="M152.21 63.0114C152.21 55.5727 142.901 48.5231 128.629 44.1514C131.922 29.5943 130.459 18.0126 124.008 14.3047C122.522 13.4349 120.784 13.0229 118.885 13.0229V18.1271C119.937 18.1271 120.784 18.3331 121.493 18.7222C124.603 20.5075 125.953 27.3054 124.9 36.0488C124.649 38.2004 124.238 40.4663 123.734 42.7781C119.251 41.6794 114.357 40.8326 109.211 40.2832C106.123 36.0488 102.921 32.2035 99.6957 28.8389C107.152 21.9037 114.151 18.1041 118.908 18.1041V13C112.618 13 104.385 17.4862 96.0594 25.2683C87.7336 17.5319 79.5 13.0916 73.2103 13.0916V18.1957C77.9447 18.1957 84.9662 21.9724 92.4225 28.8618C89.2204 32.2264 86.0183 36.0488 82.9762 40.2832C77.8071 40.8326 72.9126 41.6794 68.4299 42.8009C67.9036 40.5121 67.5149 38.2919 67.2403 36.1632C66.1657 27.4198 67.4919 20.6219 70.58 18.8137C71.2658 18.4017 72.1578 18.2186 73.2103 18.2186V13.1144C71.2888 13.1144 69.5504 13.5264 68.0412 14.3962C61.6139 18.1041 60.1732 29.6629 63.4894 44.1743C49.2631 48.5689 40 55.5958 40 63.0114C40 70.4506 49.3089 77.5003 63.5809 81.8716C60.2873 96.4291 61.751 108.01 68.2013 111.718C69.688 112.588 71.4259 113 73.3474 113C79.6371 113 87.8712 108.514 96.1964 100.732C104.522 108.468 112.756 112.909 119.045 112.909C120.966 112.909 122.705 112.497 124.215 111.627C130.641 107.919 132.083 96.36 128.766 81.8491C142.947 77.4772 152.21 70.4275 152.21 63.0114ZM122.431 47.7449C121.584 50.6977 120.532 53.7415 119.343 56.7857C118.405 54.955 117.422 53.1237 116.347 51.2924C115.295 49.4615 114.174 47.6762 113.053 45.9367C116.301 46.4173 119.434 47.0125 122.431 47.7449ZM111.955 72.1211C110.171 75.2114 108.342 78.1411 106.443 80.8649C103.035 81.1623 99.5816 81.3225 96.1049 81.3225C92.6511 81.3225 89.1974 81.1623 85.8127 80.8874C83.9142 78.1636 82.0613 75.257 80.2774 72.1897C78.539 69.1915 76.9612 66.1473 75.52 63.0805C76.9382 60.0132 78.539 56.9459 80.2549 53.9477C82.0388 50.8579 83.8682 47.928 85.7666 45.2042C89.1749 44.9067 92.6281 44.7465 96.1049 44.7465C99.5586 44.7465 103.012 44.9067 106.397 45.1814C108.296 47.9051 110.148 50.8119 111.932 53.8791C113.671 56.8773 115.249 59.9216 116.69 62.9889C115.249 66.0556 113.671 69.1229 111.955 72.1211ZM119.343 69.146C120.543 72.1288 121.597 75.1689 122.499 78.2552C119.503 78.9876 116.347 79.6058 113.076 80.0864C114.197 78.3243 115.317 76.516 116.37 74.6617C117.422 72.831 118.405 70.9767 119.343 69.146ZM96.1504 93.5681C94.0233 91.3703 91.8962 88.9213 89.7922 86.2435C91.8507 86.3351 93.9548 86.4037 96.0819 86.4037C98.232 86.4037 100.359 86.3582 102.441 86.2435C100.477 88.7967 98.3775 91.2418 96.1504 93.5681ZM79.1338 80.0864C75.8862 79.6058 72.7526 79.0106 69.7566 78.2782C70.6025 75.3256 71.655 72.2813 72.8441 69.2371C73.7821 71.0683 74.7656 72.8996 75.8401 74.7303C76.9152 76.5616 78.0132 78.3468 79.1338 80.0864ZM96.0363 32.4553C98.1634 34.6526 100.29 37.1017 102.395 39.7797C100.336 39.6881 98.232 39.6195 96.1049 39.6195C93.9548 39.6195 91.8277 39.6652 89.7467 39.7797C91.7098 37.2266 93.8094 34.7816 96.0363 32.4553ZM79.1108 45.9367C77.9902 47.6991 76.8696 49.5073 75.8176 51.361C74.7656 53.1923 73.7821 55.0236 72.8441 56.8543C71.6434 53.8715 70.5901 50.8313 69.688 47.7449C72.684 47.0354 75.8401 46.4173 79.1108 45.9367ZM58.4118 74.5932C50.3153 71.1369 45.0776 66.6053 45.0776 63.0114C45.0776 59.418 50.3153 54.8634 58.4118 51.4301C60.3788 50.5831 62.5289 49.8277 64.7475 49.1182C66.0512 53.6043 67.7665 58.2736 69.8936 63.0575C67.7896 67.8183 66.0967 72.4645 64.8161 76.928C62.5519 76.2182 60.4018 75.4402 58.4118 74.5932ZM70.717 107.301C67.6065 105.516 66.2568 98.7179 67.3093 89.9741C67.5609 87.823 67.9721 85.5567 68.4754 83.2448C72.9587 84.3437 77.8531 85.1907 82.9992 85.7399C86.0868 89.9741 89.2889 93.8194 92.5141 97.184C85.0578 104.12 78.0587 107.919 73.3013 107.919C72.2723 107.896 71.4034 107.69 70.717 107.301ZM124.969 89.86C126.044 98.6033 124.718 105.401 121.63 107.209C120.944 107.621 120.052 107.805 118.999 107.805C114.265 107.805 107.244 104.028 99.7872 97.1385C102.989 93.7738 106.191 89.9516 109.234 85.7169C114.403 85.1677 119.297 84.3207 123.78 83.1993C124.306 85.5111 124.718 87.7314 124.969 89.86ZM133.775 74.5932C131.808 75.4402 129.658 76.1956 127.439 76.905C126.136 72.419 124.42 67.7497 122.293 62.9658C124.398 58.205 126.09 53.5587 127.371 49.0953C129.635 49.8049 131.785 50.5831 133.798 51.4301C141.895 54.8859 147.132 59.418 147.132 63.0114C147.109 66.6053 141.872 71.1599 133.775 74.5932Z" fill="#61DAFB"/>
<path d="M96.0812 72.9135C101.854 72.9135 106.534 68.2304 106.534 62.4531C106.534 56.6762 101.854 51.9932 96.0812 51.9932C90.3086 51.9932 85.6289 56.6762 85.6289 62.4531C85.6289 68.2304 90.3086 72.9135 96.0812 72.9135Z" fill="#61DAFB"/>
<path d="M203.414 68.782H186.894V97.5077H177.571V26.498H200.854C208.775 26.498 214.862 28.3201 219.113 31.9618C223.396 35.6011 225.537 40.9017 225.537 47.8588C225.537 52.2818 224.346 56.1336 221.963 59.4193C219.612 62.7025 216.327 65.1575 212.109 66.7819L228.629 96.9218V97.5077H218.678L203.414 68.782ZM186.894 61.1253H201.144C205.749 61.1253 209.404 59.9212 212.109 57.5156C214.846 55.1101 216.214 51.8911 216.214 47.8588C216.214 43.4704 214.91 40.1057 212.302 37.7644C209.726 35.4231 205.99 34.2364 201.095 34.2042H186.894V61.1253ZM258.868 98.4843C251.782 98.4843 246.018 96.143 241.574 91.4605C237.13 86.7458 234.908 80.4537 234.908 72.5868V70.9279C234.908 65.694 235.89 61.0288 237.854 56.9322C239.851 52.8009 242.621 49.582 246.163 47.2754C249.737 44.9341 253.602 43.7622 257.756 43.7622C264.551 43.7622 269.833 46.0219 273.599 50.5413C277.367 55.0607 279.251 61.5307 279.251 69.9514V73.7068H243.844C243.973 78.911 245.471 83.1214 248.336 86.3403C251.235 89.5247 254.906 91.1193 259.35 91.1193C262.506 91.1193 265.178 90.4691 267.367 89.1686C269.559 87.8682 271.474 86.145 273.117 83.9991L278.575 88.291C274.194 95.0849 267.627 98.4843 258.868 98.4843ZM257.756 51.1767C254.149 51.1767 251.122 52.5092 248.675 55.1744C246.227 57.8098 244.714 61.5158 244.134 66.2948H270.315V65.6124C270.058 61.0288 268.834 57.4835 266.645 54.9791C264.453 52.445 261.49 51.1767 257.756 51.1767ZM321.904 97.5077C321.387 96.4669 320.969 94.6151 320.648 91.9475C316.492 96.3037 311.534 98.4843 305.77 98.4843C300.618 98.4843 296.384 97.0207 293.066 94.0935C289.782 91.1341 288.139 87.396 288.139 82.8766C288.139 77.3832 290.201 73.1233 294.322 70.0997C298.475 67.0414 304.305 65.5136 311.808 65.5136H320.503V61.37C320.503 58.2153 319.568 55.7109 317.702 53.8591C315.834 51.9727 313.079 51.0308 309.44 51.0308C306.252 51.0308 303.581 51.8417 301.423 53.4685C299.266 55.0928 298.186 57.0607 298.186 59.3699H289.202C289.202 56.7369 290.12 54.2003 291.954 51.7601C293.823 49.2903 296.335 47.3396 299.491 45.9082C302.679 44.4792 306.171 43.7622 309.972 43.7622C315.995 43.7622 320.711 45.2901 324.125 48.3483C327.538 51.3719 329.309 55.5502 329.439 60.8805V85.1685C329.439 90.0142 330.051 93.8661 331.275 96.7265V97.5077H321.904ZM307.075 90.6322C309.876 90.6322 312.533 89.9005 315.045 88.4368C317.555 86.9732 319.375 85.072 320.503 82.7307V71.9045H313.498C302.55 71.9045 297.074 75.1383 297.074 81.6083C297.074 84.4366 298.01 86.6493 299.876 88.2415C301.744 89.8337 304.144 90.6322 307.075 90.6322ZM364.411 91.1193C367.599 91.1193 370.385 90.1427 372.768 88.1921C375.15 86.2414 376.47 83.8037 376.727 80.8765H385.183C385.021 83.9001 383.99 86.7779 382.09 89.5098C380.19 92.2417 377.646 94.4198 374.457 96.0441C371.301 97.6709 367.954 98.4843 364.411 98.4843C357.295 98.4843 351.626 96.0936 347.407 91.3146C343.222 86.501 341.129 79.9346 341.129 71.6103V70.0997C341.129 64.9622 342.061 60.3934 343.93 56.3957C345.798 52.3955 348.47 49.2903 351.949 47.08C355.458 44.8673 359.596 43.7622 364.362 43.7622C370.224 43.7622 375.087 45.5349 378.951 49.0802C382.847 52.623 384.923 57.2239 385.183 62.8806H376.727C376.47 59.4663 375.182 56.6701 372.863 54.492C370.579 52.2818 367.743 51.1767 364.362 51.1767C359.822 51.1767 356.296 52.8331 353.783 56.1509C351.305 59.4342 350.064 64.1983 350.064 70.4409V72.1468C350.064 78.2262 351.305 82.9087 353.783 86.192C356.264 89.4777 359.807 91.1193 364.411 91.1193ZM407.353 31.9618V44.7388H417.111V51.7132H407.353V84.4366C407.353 86.5504 407.789 88.1426 408.658 89.2156C409.527 90.2564 411.009 90.7781 413.102 90.7781C414.131 90.7781 415.549 90.5828 417.351 90.1921V97.5077C415 98.158 412.716 98.4843 410.492 98.4843C406.501 98.4843 403.489 97.2629 401.459 94.8253C399.431 92.3876 398.418 88.9238 398.418 84.4366V51.7132H388.9V44.7388H398.418V31.9618H407.353Z" fill="#61DAFB"/>
</svg>
