<svg width="57" height="56" viewBox="0 0 57 56" fill="none" xmlns="http://www.w3.org/2000/svg">
<g clip-path="url(#clip0_404_10284)">
<rect width="56.3129" height="56" rx="16" fill="#D7FFC6"/>
<path d="M18.986 16.8506C18.986 20.8703 21.4825 23.2822 26.4754 24.5516L31.7645 25.7787C36.5036 26.8788 39.3809 29.5868 39.3809 33.9874C39.4232 35.8915 38.7885 37.7533 37.6461 39.2765C37.6461 34.876 35.3612 32.5064 29.9028 31.0678L24.6983 29.883C20.5093 28.9521 17.2935 26.7095 17.2935 21.9282C17.2935 20.1087 17.8858 18.2892 18.986 16.8506Z" fill="black"/>
<path d="M34.388 32.8872C36.6306 34.3258 37.6462 36.3568 37.6462 39.2764C35.7421 41.6883 32.484 43 28.6335 43C22.1596 43 17.5474 39.7842 16.5742 34.2412H22.7942C23.5982 36.78 25.7139 37.9647 28.5911 37.9647C32.0185 38.0071 34.3457 36.1453 34.388 32.8872ZM18.9861 16.8082C20.8055 14.4386 23.9367 13 27.7449 13C34.388 13 38.1962 16.512 39.1694 21.4203H33.161C32.484 19.4739 30.8337 17.9506 27.8295 17.9506C24.5714 17.9929 22.3711 19.8547 22.2442 22.8166C20.0638 21.6142 18.9014 19.2623 18.9861 16.8082Z" fill="#434343"/>
</g>
<defs>
<clipPath id="clip0_404_10284">
<rect width="56.3129" height="56" fill="white"/>
</clipPath>
</defs>
</svg>
