<svg width="56" height="56" viewBox="0 0 56 56" fill="none" xmlns="http://www.w3.org/2000/svg">
<rect width="56" height="56" rx="16" fill="#D7FFC6"/>
<path d="M39.2334 29.7468C38.1481 29.7525 37.2048 30.0139 36.4149 30.4003C36.1251 29.8264 35.8353 29.315 35.7841 28.9399C35.7273 28.5023 35.6591 28.2353 35.7273 27.7125C35.7955 27.1897 36.1023 26.4453 36.0967 26.3884C36.091 26.3316 36.0285 26.0645 35.4034 26.0588C34.7783 26.0532 34.2385 26.1782 34.176 26.343C34.1134 26.5078 33.9941 26.8828 33.9146 27.2692C33.8066 27.8375 32.6644 29.8662 32.0109 30.9288C31.8006 30.514 31.6188 30.1503 31.579 29.8605C31.5222 29.4229 31.454 29.1558 31.5222 28.633C31.5904 28.1102 31.8972 27.3658 31.8916 27.309C31.8859 27.2522 31.8234 26.9851 31.1983 26.9794C30.5732 26.9737 30.0334 27.0988 29.9709 27.2635C29.9083 27.4283 29.8402 27.8148 29.7095 28.1898C29.5788 28.5649 28.0615 31.9517 27.6637 32.8268C27.4592 33.2757 27.283 33.6337 27.158 33.8781C27.158 33.8781 27.1523 33.8951 27.1353 33.9235C27.0273 34.1338 26.9648 34.2474 26.9648 34.2474C26.9648 34.2474 26.9648 34.2474 26.9648 34.2531C26.8795 34.4065 26.7886 34.5486 26.7432 34.5486C26.7091 34.5486 26.6466 34.1394 26.7545 33.5826C26.9818 32.4063 27.5217 30.5765 27.516 30.514C27.516 30.4799 27.6183 30.1617 27.1637 29.9969C26.7204 29.8321 26.5613 30.1048 26.5215 30.1048C26.4818 30.1048 26.4533 30.2014 26.4533 30.2014C26.4533 30.2014 26.9477 28.1443 25.51 28.1443C24.6122 28.1443 23.3734 29.1274 22.7597 30.0139C22.3733 30.2242 21.5493 30.6731 20.6685 31.1561C20.3332 31.3436 19.9866 31.5312 19.6627 31.7073C19.64 31.6846 19.6172 31.6562 19.5945 31.6334C17.8556 29.7752 14.6393 28.4626 14.7757 25.9679C14.8268 25.0587 15.1394 22.672 20.9526 19.7739C25.7373 17.4157 29.5447 18.0692 30.2038 19.5182C31.1471 21.5867 28.1638 25.4281 23.22 25.985C21.3334 26.1952 20.3446 25.4679 20.0946 25.1951C19.8332 24.911 19.7934 24.8939 19.6968 24.9507C19.5377 25.036 19.64 25.2917 19.6968 25.4394C19.8445 25.8259 20.4526 26.5078 21.4811 26.843C22.3903 27.1385 24.6008 27.3033 27.2773 26.2691C30.272 25.1099 32.6132 21.8878 31.9257 19.1886C31.2381 16.4496 26.692 15.5461 22.3903 17.0747C19.8332 17.9839 17.0601 19.4159 15.0655 21.2798C12.6959 23.496 12.3208 25.4224 12.4742 26.2293C13.0254 29.0933 16.9748 30.9572 18.5546 32.3381C18.475 32.3835 18.4012 32.4233 18.3386 32.4574C17.5488 32.8495 14.537 34.4236 13.7869 36.0886C12.9345 37.9752 13.9233 39.3276 14.5768 39.5095C16.6055 40.072 18.691 39.0605 19.8104 37.3899C20.9299 35.7192 20.7935 33.5485 20.2764 32.554C20.2707 32.5426 20.265 32.5313 20.2537 32.5199C20.4582 32.4006 20.6685 32.2756 20.8731 32.1562C21.2765 31.9176 21.6743 31.6959 22.0153 31.5141C21.8221 32.0426 21.68 32.6733 21.6118 33.5826C21.5266 34.6509 21.9641 36.0374 22.5381 36.5829C22.7938 36.8216 23.095 36.8273 23.2882 36.8273C23.9587 36.8273 24.2599 36.2704 24.5951 35.6112C25.0043 34.8043 25.3737 33.8667 25.3737 33.8667C25.3737 33.8667 24.9134 36.4011 26.1635 36.4011C26.6181 36.4011 27.0784 35.8101 27.283 35.5089C27.283 35.5146 27.283 35.5146 27.283 35.5146C27.283 35.5146 27.2944 35.4976 27.3171 35.4578C27.3626 35.3839 27.391 35.3385 27.391 35.3385C27.391 35.3385 27.391 35.3328 27.391 35.3271C27.5728 35.0089 27.982 34.2872 28.59 33.0882C29.3742 31.5425 30.13 29.6104 30.13 29.6104C30.13 29.6104 30.1982 30.0821 30.4311 30.8663C30.5675 31.3266 30.8517 31.8323 31.079 32.321C30.8971 32.5767 30.7835 32.7188 30.7835 32.7188C30.7835 32.7188 30.7835 32.7188 30.7891 32.7245C30.6414 32.9177 30.4823 33.128 30.3061 33.3325C29.6867 34.0713 28.948 34.918 28.8457 35.1623C28.7264 35.4521 28.7548 35.6624 28.9821 35.8329C29.1469 35.9579 29.4424 35.9749 29.7436 35.9579C30.3004 35.9181 30.6925 35.7817 30.8857 35.6965C31.1869 35.5885 31.5392 35.4237 31.8688 35.1794C32.4769 34.7304 32.8462 34.0883 32.8121 33.2416C32.7951 32.7756 32.6417 32.3097 32.4541 31.8721C32.511 31.7925 32.5621 31.713 32.6189 31.6334C33.5793 30.2298 34.3237 28.6899 34.3237 28.6899C34.3237 28.6899 34.3919 29.1615 34.6249 29.9457C34.7385 30.3435 34.9715 30.7754 35.1761 31.1959C34.2726 31.9289 33.7157 32.7813 33.5168 33.3382C33.1588 34.3724 33.4372 34.8384 33.9657 34.9464C34.2044 34.9975 34.5453 34.8839 34.7954 34.7759C35.1136 34.6736 35.4886 34.4974 35.8466 34.2361C36.4547 33.7871 37.04 33.162 37.0059 32.3153C36.9888 31.9289 36.8865 31.5482 36.7445 31.1788C37.5116 30.8606 38.5004 30.6844 39.7619 30.8322C42.4668 31.1504 43.001 32.8381 42.8987 33.5485C42.7964 34.2588 42.2281 34.6452 42.0406 34.7645C41.8531 34.8839 41.7906 34.9236 41.8076 35.0089C41.8304 35.1339 41.9213 35.1282 42.0804 35.1055C42.302 35.0657 43.501 34.5315 43.5522 33.2246C43.6374 31.5539 42.0463 29.7298 39.2334 29.7468ZM18.3671 36.7818C17.4692 37.7592 16.219 38.1286 15.6792 37.8161C15.0996 37.4808 15.3269 36.0374 16.4293 35.0032C17.0998 34.3724 17.9636 33.7871 18.5375 33.4291C18.6682 33.3496 18.8614 33.2359 19.0944 33.0939C19.1342 33.0711 19.1569 33.0598 19.1569 33.0598C19.2024 33.0313 19.2479 33.0029 19.2933 32.9745C19.6968 34.452 19.3104 35.7533 18.3671 36.7818ZM24.902 32.3381C24.5895 33.0995 23.936 35.0487 23.5382 34.9407C23.1972 34.8498 22.987 33.3723 23.47 31.9119C23.7144 31.1788 24.2315 30.3037 24.5326 29.9628C25.0213 29.4172 25.5612 29.2354 25.6919 29.457C25.8567 29.7468 25.0952 31.8607 24.902 32.3381ZM30.2948 34.918C30.1641 34.9861 30.039 35.0316 29.9822 34.9975C29.9424 34.9748 30.039 34.8839 30.039 34.8839C30.039 34.8839 30.7153 34.1565 30.9824 33.8269C31.1358 33.6337 31.3176 33.4064 31.5108 33.1507C31.5108 33.1734 31.5108 33.2018 31.5108 33.2246C31.5108 34.094 30.6698 34.6793 30.2948 34.918ZM34.4544 33.969C34.3578 33.9008 34.3748 33.6735 34.6987 32.9632C34.8238 32.6847 35.1193 32.2187 35.625 31.7698C35.6818 31.9517 35.7216 32.1278 35.7159 32.2926C35.7102 33.3893 34.926 33.7985 34.4544 33.969Z" fill="black"/>
</svg>
