<svg width="56" height="56" viewBox="0 0 56 56" fill="none" xmlns="http://www.w3.org/2000/svg">
<rect width="56" height="56" rx="16" fill="#D7FFC6"/>
<path d="M12.4443 12.4443H43.5554V43.5554H12.4443V12.4443Z" fill="black"/>
<path d="M27.3824 23.965H28.8748V26.5414H24.8401V38.0039L24.7331 38.033C24.5873 38.0719 22.6672 38.0719 22.254 38.0282L21.9234 37.999V26.5414H17.8887V23.965L19.1671 23.9504C19.8671 23.9407 21.6658 23.9407 23.163 23.9504C24.6602 23.9601 26.556 23.965 27.3824 23.965V23.965ZM38.772 36.7886C38.179 37.4157 37.5422 37.7657 36.4825 38.0525C36.0206 38.1789 35.9429 38.1837 34.9026 38.1789C33.8623 38.174 33.7797 38.174 33.2741 38.0427C31.9665 37.7073 30.9116 37.0511 30.1922 36.1226C29.988 35.8601 29.6526 35.3157 29.6526 35.2476C29.6526 35.2282 29.7012 35.1844 29.7644 35.1553C29.8276 35.1261 29.9588 35.0434 30.0658 34.9803C30.1727 34.9171 30.3672 34.8004 30.4984 34.7323C30.6297 34.6643 31.0088 34.4407 31.3394 34.2414C31.6699 34.0421 31.9713 33.8816 32.0054 33.8816C32.0394 33.8816 32.1026 33.9497 32.1512 34.0323C32.4429 34.5233 33.1234 35.1504 33.6047 35.3643C33.9012 35.4907 34.5574 35.6316 34.8734 35.6316C35.1651 35.6316 35.6998 35.5053 35.9866 35.374C36.2929 35.233 36.4484 35.0921 36.6331 34.8101C36.7595 34.6108 36.7741 34.5573 36.7693 34.1782C36.7693 33.8282 36.7498 33.7309 36.6526 33.5705C36.3804 33.1233 36.0109 32.89 34.5137 32.2289C32.9679 31.5434 32.2727 31.1351 31.7088 30.5858C31.2908 30.1775 31.2081 30.0657 30.9456 29.5553C30.6054 28.899 30.5616 28.6851 30.5567 27.708C30.5519 27.0226 30.5665 26.799 30.6394 26.5657C30.7415 26.2157 31.072 25.54 31.2227 25.3698C31.5338 25.0053 31.6456 24.8934 31.8644 24.7136C32.5255 24.1691 33.5561 23.8094 34.5429 23.7754C34.6547 23.7754 35.0241 23.7948 35.3693 23.8191C36.3609 23.9018 37.0366 24.1448 37.688 24.665C38.179 25.0539 38.9227 25.9678 38.8498 26.0893C38.8012 26.1622 36.8616 27.4553 36.7352 27.4941C36.6575 27.5184 36.604 27.4893 36.497 27.3629C35.8359 26.5705 35.5686 26.4004 34.9269 26.3615C34.47 26.3323 34.2269 26.3858 33.9206 26.59C33.5998 26.8039 33.4443 27.1296 33.4443 27.5816C33.4491 28.2428 33.7019 28.5539 34.6352 29.0157C35.238 29.3122 35.7533 29.5553 35.7922 29.5553C35.8505 29.5553 37.0998 30.1775 37.4255 30.3719C38.9422 31.2615 39.5595 32.1754 39.72 33.7504C39.8366 34.9365 39.5012 36.0205 38.772 36.7886V36.7886Z" fill="#D7FFC6"/>
</svg>
