<svg width="42" height="37" viewBox="0 0 42 37" fill="none" xmlns="http://www.w3.org/2000/svg">
<g clip-path="url(#clip0_8_2883)">
<path d="M26.25 18.5H32.5255C32.8716 18.5001 33.2098 18.5905 33.4975 18.7599C33.7853 18.9293 34.0095 19.1701 34.1419 19.4517C34.2744 19.7334 34.309 20.0433 34.2415 20.3423C34.174 20.6414 34.0074 20.916 33.7627 21.1316L22.2372 31.285C21.9091 31.5741 21.464 31.7364 21 31.7364C20.536 31.7364 20.0909 31.5741 19.7627 31.285L8.23725 21.1316C7.99258 20.916 7.82597 20.6414 7.75847 20.3423C7.69098 20.0433 7.72564 19.7334 7.85806 19.4517C7.99048 19.1701 8.21473 18.9293 8.50244 18.7599C8.79016 18.5905 9.12843 18.5001 9.4745 18.5H15.75V13.875H26.25V18.5Z" stroke="#D7FFC6" stroke-width="1.5" stroke-linecap="round" stroke-linejoin="round"/>
<path d="M26.25 4.625H15.75" stroke="#D7FFC6" stroke-width="1.5" stroke-linecap="round" stroke-linejoin="round"/>
<path d="M26.25 9.25H15.75" stroke="#D7FFC6" stroke-width="1.5" stroke-linecap="round" stroke-linejoin="round"/>
</g>
<defs>
<clipPath id="clip0_8_2883">
<rect width="42" height="37" fill="white"/>
</clipPath>
</defs>
</svg>
