<svg width="140" height="76" viewBox="0 0 140 76" fill="none" xmlns="http://www.w3.org/2000/svg">
<path d="M82.199 4.38287H57.2381C53.9482 4.38287 51.2812 7.27843 51.2812 10.8503V38.1165C51.2812 41.6883 53.9482 44.5839 57.2381 44.5839H82.199C85.4889 44.5839 88.1558 41.6883 88.1558 38.1165V10.8503C88.1558 7.27843 85.4889 4.38287 82.199 4.38287Z" fill="url(#paint0_linear_45_148)"/>
<path d="M69.9967 21.6894C70.9386 21.6894 71.6523 21.4705 72.1389 21.0223C72.6254 20.5742 72.8685 19.9215 72.8685 19.0543C72.8685 18.198 72.6254 17.5475 72.1389 17.1028C71.6492 16.6468 70.9383 16.4188 69.9967 16.4188H66.6899V21.6897L69.9967 21.6894ZM70.1983 32.5813C71.3986 32.5813 72.299 32.3093 72.8993 31.7642C73.51 31.2194 73.8153 30.3966 73.8153 29.2957C73.8153 28.2168 73.5151 27.4109 72.9148 26.8774C72.3146 26.3326 71.4092 26.0602 70.1986 26.0602H66.6902V32.582H70.1986M75.7559 23.6252C77.0391 24.0255 78.0326 24.7651 78.7363 25.8435C79.44 26.9218 79.7917 28.2453 79.792 29.8133C79.792 32.2151 79.0364 34.0055 77.5256 35.1843C76.0148 36.363 73.7176 36.9522 70.6335 36.9522H60.7144V12.0493H69.687C72.9053 12.0493 75.2339 12.5716 76.6721 13.617C78.121 14.6622 78.8454 16.336 78.8454 18.6377C78.8454 19.8499 78.5816 20.8838 78.0539 21.74C77.5262 22.5851 76.7577 23.2099 75.7564 23.6249" fill="#D7FFC6"/>
<path d="M17.9981 57.9627V64.7267H21.6894C22.9261 64.7267 23.8431 64.4505 24.4357 63.8983C25.0354 63.3371 25.3341 62.4834 25.3341 61.3396C25.3341 60.1996 25.0342 59.3357 24.4357 58.7911C23.8431 58.2388 22.9284 57.9627 21.6894 57.9627H17.9981ZM17.9981 50.3677V55.9347H21.4047C22.5294 55.9347 23.3647 55.7067 23.9107 55.2545C24.4649 54.7922 24.7426 54.0917 24.7426 53.1519C24.7426 52.2196 24.4649 51.5229 23.9107 51.0619C23.3566 50.6008 22.5282 50.369 21.4047 50.369L17.9981 50.3677ZM15.6962 48.317H21.5762C23.3309 48.317 24.6831 48.7135 25.6327 49.5051C26.5824 50.2968 27.0561 51.4229 27.0561 52.8821C27.0561 54.0119 26.8134 54.9113 26.3269 55.5801C25.8404 56.2489 25.1252 56.6643 24.1849 56.829C25.3166 57.0925 26.1939 57.646 26.8169 58.4757C27.4469 59.3091 27.7502 60.3503 27.7502 61.6043C27.7502 63.2535 27.2334 64.5278 26.2009 65.4271C25.1684 66.3265 23.6984 66.7749 21.7909 66.7749H15.6846V48.3107" fill="#D7FFC6"/>
<path d="M36.429 54.5224C35.91 54.5035 35.3947 54.6247 34.9295 54.8751C34.4642 55.1256 34.0634 55.4975 33.7632 55.9575C33.1098 56.9075 32.7832 58.2084 32.7832 59.8665C32.7832 61.5245 33.1063 62.8305 33.7515 63.7881C34.4048 64.7381 35.2973 65.2105 36.429 65.2105C36.9462 65.2285 37.4595 65.1068 37.9227 64.8563C38.386 64.6058 38.7847 64.2344 39.0832 63.7754C39.7365 62.8191 40.0632 61.5157 40.0632 59.8665C40.0632 58.2249 39.7365 56.9278 39.0832 55.9702C38.4298 55.005 37.5455 54.5224 36.429 54.5224M36.429 52.5933C38.2513 52.5933 39.6957 53.2367 40.7247 54.5224C41.7537 55.8081 42.2857 57.5903 42.2857 59.8677C42.2857 62.1452 41.7653 63.9173 40.7247 65.2131C39.684 66.5 38.2513 67.1422 36.429 67.1422C34.5973 67.1422 33.1623 66.4987 32.1123 65.2131C31.0798 63.9185 30.563 62.1376 30.563 59.8677C30.563 57.5915 31.0798 55.8106 32.1123 54.5224C33.153 53.2355 34.588 52.5933 36.429 52.5933" fill="#D7FFC6"/>
<path d="M50.5774 54.5224C50.0584 54.5035 49.5432 54.6247 49.0779 54.8751C48.6126 55.1256 48.2119 55.4975 47.9116 55.9575C47.2583 56.9075 46.9316 58.2084 46.9316 59.8665C46.9316 61.5245 47.2548 62.8305 47.8999 63.7881C48.5533 64.7381 49.4458 65.2105 50.5774 65.2105C51.0947 65.2285 51.6079 65.1068 52.0712 64.8563C52.5344 64.6058 52.9331 64.2344 53.2316 63.7754C53.8849 62.8191 54.2116 61.5157 54.2116 59.8665C54.2116 58.2249 53.8849 56.9278 53.2316 55.9702C52.5783 55.005 51.6939 54.5224 50.5774 54.5224M50.5774 52.5933C52.3998 52.5933 53.8441 53.2367 54.8731 54.5224C55.9021 55.8081 56.4341 57.5903 56.4341 59.8677C56.4341 62.1452 55.9138 63.9173 54.8731 65.2131C53.8324 66.5 52.3998 67.1422 50.5774 67.1422C48.7458 67.1422 47.3108 66.4987 46.2608 65.2131C45.2283 63.9185 44.7114 62.1376 44.7114 59.8677C44.7114 57.5915 45.2283 55.8106 46.2608 54.5224C47.3014 53.2355 48.7364 52.5933 50.5774 52.5933" fill="#D7FFC6"/>
<path d="M61.8533 48.9921V52.9251H66.17V54.6934H61.8533V62.2149C61.8533 63.3447 61.9933 64.0705 62.2733 64.3935C62.5615 64.7153 63.1425 64.8749 64.0163 64.8749H66.17V66.7799H64.0151C62.397 66.7799 61.2805 66.4544 60.6668 65.8046C60.052 65.1459 59.7335 63.9489 59.7335 62.2174V54.6934H58.1958V52.9251H59.7335V48.9947H61.8416M76.9453 53.3355V55.4889C76.3598 55.1618 75.7401 54.9126 75.0996 54.7466C74.4615 54.5819 73.8011 54.4996 73.1163 54.4996C72.0756 54.4996 71.2928 54.6731 70.769 55.0063C70.2521 55.3521 69.9943 55.8727 69.9943 56.5643C69.9943 57.0925 70.181 57.5079 70.5543 57.8132C70.9276 58.1096 71.6743 58.3959 72.799 58.6669L73.5165 58.8405C75.0051 59.1863 76.0598 59.6765 76.684 60.3123C77.314 60.9393 77.6173 61.8171 77.6173 62.947C77.6341 63.5421 77.5151 64.1325 77.2708 64.6655C77.0265 65.1986 76.6646 65.6578 76.2173 66.0022C75.284 66.7521 73.996 67.1422 72.3673 67.1422C71.6836 67.1422 70.9696 67.0662 70.2253 66.9193C69.488 66.7926 68.7086 66.5646 67.8896 66.2758V63.9261C68.6643 64.3631 69.4273 64.6925 70.1798 64.9141C70.9083 65.1252 71.6588 65.2334 72.4128 65.2359C73.3998 65.2359 74.1593 65.0547 74.6913 64.6912C75.2233 64.3201 75.4893 63.8007 75.4893 63.1332C75.4893 62.5151 75.2956 62.0401 74.9083 61.7107C74.528 61.3814 73.6891 61.0774 72.3906 60.7582L71.6615 60.5733C70.363 60.2769 69.425 59.8234 68.8475 59.2129C68.27 58.5947 67.9818 57.7486 67.9818 56.677C67.9818 55.3723 68.4076 54.3679 69.2581 53.6585C70.1086 52.9492 71.3161 52.5945 72.8806 52.5945C73.6132 52.5907 74.3449 52.6526 75.0681 52.7795C75.7148 52.8921 76.3487 53.0785 76.9593 53.3355M82.9478 48.9909V52.9239H87.2645V54.6921H82.9478V62.2136C82.9478 63.3435 83.0878 64.0693 83.3678 64.3923C83.656 64.714 84.237 64.8736 85.1108 64.8736H87.2668V66.7787H85.1131C83.495 66.7787 82.3785 66.4531 81.7648 65.8033C81.15 65.1447 80.8315 63.9477 80.8315 62.2161V54.6921H79.2938V52.9239H80.8315V48.9947H82.9501M97.3001 55.0557C97.0591 54.9049 96.7976 54.7963 96.5255 54.7339C96.2276 54.6557 95.9219 54.6183 95.6155 54.6225C94.4301 54.6225 93.519 55.043 92.8808 55.8841C92.2508 56.7175 91.9475 57.9171 91.9475 59.4839V66.7825H89.8393V52.9251H91.9475V55.0785C92.3885 54.2374 92.9625 53.6142 93.6683 53.2101C94.3741 52.7972 95.2316 52.592 96.2431 52.592C96.4031 52.5931 96.5629 52.6054 96.7215 52.6287L97.3025 52.7149L97.3141 55.0531M105.217 59.8158C103.523 59.8158 102.349 60.0261 101.696 60.4466C101.043 60.8671 100.716 61.5841 100.716 62.5999C100.716 63.4081 100.959 64.0515 101.445 64.5291C101.939 64.9977 102.607 65.2346 103.452 65.2346C104.614 65.2346 105.545 64.7887 106.244 63.8983C106.95 63.0116 107.303 61.8083 107.303 60.3237V59.8171H105.218M109.4 58.8772V66.7812H107.303V64.6785C106.836 65.5196 106.23 66.1428 105.515 66.5469C104.801 66.9421 103.928 67.1422 102.894 67.1422C101.588 67.1422 100.547 66.747 99.7723 65.9553C99.0046 65.1548 98.622 64.087 98.622 62.7507C98.622 61.1927 99.0886 60.0172 100.057 59.2255C101.025 58.4339 102.457 58.0387 104.374 58.0387H107.314V57.8157C107.314 56.7682 106.995 55.9601 106.357 55.3913C105.727 54.8137 104.838 54.5249 103.691 54.5249C102.962 54.5249 102.251 54.6199 101.561 54.8099C100.865 55.0014 100.195 55.2883 99.567 55.6637V53.561C100.335 53.2393 101.079 52.9999 101.8 52.8441C102.493 52.6826 103.199 52.5998 103.908 52.5971C105.754 52.5971 107.133 53.1037 108.044 54.1551C108.955 55.2064 109.411 56.7695 109.411 58.8797M115.653 64.7013V72.048H113.545V52.9264H115.653V55.0291C116.094 54.2057 116.648 53.5939 117.317 53.1987C117.993 52.7934 118.798 52.5907 119.732 52.5907C120.462 52.5725 121.186 52.745 121.842 53.0937C122.498 53.4424 123.068 53.9572 123.502 54.5946C124.474 55.9309 124.961 57.6853 124.961 59.8639C124.961 62.0426 124.474 63.7969 123.502 65.1333C123.068 65.7707 122.498 66.2854 121.842 66.6341C121.186 66.9828 120.462 67.1553 119.732 67.1371C118.798 67.1371 117.982 66.9395 117.317 66.5418C116.648 66.1365 116.094 65.5234 115.653 64.6988M122.785 59.8627C122.785 58.1881 122.466 56.8771 121.828 55.9297C121.198 54.9733 120.328 54.4945 119.219 54.4945C118.707 54.4759 118.198 54.5975 117.74 54.8483C117.282 55.0991 116.89 55.471 116.599 55.9297C115.969 56.8797 115.666 58.1894 115.666 59.8627C115.666 61.5359 115.981 62.852 116.599 63.8083C117.237 64.7583 118.111 65.2308 119.219 65.2308C120.328 65.2308 121.198 64.7571 121.828 63.8083C122.466 62.852 122.785 61.5359 122.785 59.8627Z" fill="#D7FFC6"/>
<defs>
<linearGradient id="paint0_linear_45_148" x1="53.4085" y1="42.4992" x2="88.6015" y2="9.51848" gradientUnits="userSpaceOnUse">
<stop offset="1" stop-color="#D7FFC6"/>
</linearGradient>
</defs>
</svg>
