<svg width="64" height="64" viewBox="0 0 64 64" fill="none" xmlns="http://www.w3.org/2000/svg">
<g clip-path="url(#clip0_45_207)">
<path d="M0 0H53.76C56.4758 0 59.0804 1.07885 61.0008 2.99923C62.9211 4.9196 64 7.52418 64 10.24V53.76C64 56.4758 62.9211 59.0804 61.0008 61.0008C59.0804 62.9211 56.4758 64 53.76 64H10.24C7.52418 64 4.9196 62.9211 2.99923 61.0008C1.07885 59.0804 0 56.4758 0 53.76L0 0Z" fill="#D7FFC6"/>
<path d="M52.2588 58.8736C50.1858 58.8736 48.6005 58.2707 47.4908 57.0592C46.3932 55.8413 45.8216 54.1037 45.7704 51.8342H50.2376C50.2632 53.8413 50.9685 54.8474 52.3548 54.8474C53.0613 54.8474 53.5618 54.6234 53.8504 54.1805C54.1327 53.7389 54.2805 53.033 54.2805 52.0653C54.2805 51.296 54.0879 50.6547 53.7154 50.1485C53.21 49.5463 52.5611 49.0811 51.8287 48.7955L50.173 48C48.6972 47.2947 47.6252 46.4614 46.964 45.4867C46.3221 44.5184 46.0015 43.1597 46.0015 41.4227C46.0015 39.4797 46.5666 37.9027 47.6892 36.6906C48.8444 35.479 50.4168 34.8768 52.4252 34.8768C54.3644 34.8768 55.8658 35.4726 56.9244 36.6586C58.0028 37.8515 58.5672 39.5565 58.6127 41.7875H54.3125C54.3381 41.0579 54.1909 40.3334 53.8824 39.6717C53.6392 39.1853 53.1637 38.9414 52.4578 38.9414C51.2002 38.9414 50.5711 39.6909 50.5711 41.1846C50.5711 41.9418 50.7247 42.5312 51.0332 42.9798C51.4775 43.4762 52.0342 43.8589 52.6568 44.096L54.2421 44.7949C55.8786 45.545 57.0594 46.4621 57.7845 47.5712C58.516 48.6739 58.8757 50.1485 58.8757 51.9949C58.8757 54.2067 58.2978 55.9053 57.1234 57.0912C55.9554 58.2771 54.3311 58.8736 52.2588 58.8736ZM37.8319 58.8736C35.7583 58.8736 34.1736 58.2707 33.0632 57.0592C31.9656 55.8413 31.3948 54.1037 31.3436 51.8342H35.8101C35.8357 53.8413 36.5416 54.8474 37.9285 54.8474C38.6338 54.8474 39.1343 54.6234 39.4165 54.1805C39.7058 53.7389 39.8466 53.033 39.8466 52.0653C39.8466 51.296 39.661 50.6547 39.2885 50.1485C38.7831 49.5463 38.1343 49.0811 37.4018 48.7955L35.7461 48C34.2696 47.2947 33.1983 46.4614 32.5372 45.4867C31.8952 44.5184 31.5746 43.1597 31.5746 41.4227C31.5746 39.4797 32.1391 37.9027 33.2623 36.6906C34.4175 35.479 35.99 34.8768 37.9983 34.8768C39.9368 34.8768 41.4383 35.4726 42.4911 36.6586C43.5823 37.8515 44.1404 39.5565 44.1852 41.7875H39.8856C39.9112 41.0579 39.764 40.3334 39.4556 39.6717C39.2117 39.1853 38.7368 38.9414 38.0309 38.9414C36.7727 38.9414 36.1436 39.6909 36.1436 41.1846C36.1436 41.9418 36.2978 42.5312 36.6056 42.9798C37.05 43.4762 37.6067 43.8589 38.2293 44.096L39.8146 44.7949C41.4511 45.545 42.6319 46.4621 43.3576 47.5712C44.0828 48.6739 44.4482 50.1485 44.4482 51.9949C44.4482 54.2067 43.8645 55.9053 42.6965 57.0912C41.5285 58.2771 39.9048 58.8736 37.8319 58.8736ZM22.8079 58.8736C20.7791 58.8736 19.1688 58.3219 17.9752 57.2192C16.7816 56.1235 16.1909 54.4755 16.1909 52.2957V41.5251C16.1909 39.3587 16.82 37.7171 18.0776 36.5888C19.3551 35.4733 21.03 34.9094 23.1029 34.9094C25.1119 34.9094 26.6965 35.4861 27.8709 36.6272C29.0588 37.7747 29.6552 39.4803 29.6552 41.7562V42.6086H24.9256V41.7818C24.9256 40.9037 24.733 40.256 24.3605 39.833C24.1978 39.6214 23.9875 39.4513 23.7466 39.3366C23.5057 39.2218 23.241 39.1656 22.9743 39.1725C22.2044 39.1725 21.6591 39.4349 21.3506 39.9674C21.0223 40.704 20.8748 41.5084 20.9205 42.3136V51.6742C20.9205 53.6294 21.6079 54.6234 22.9749 54.6426C23.6162 54.6426 24.0975 54.4115 24.4316 53.9501C24.7944 53.3672 24.967 52.686 24.9256 52.0006V51.3024H29.6552V52.0333C29.6552 53.5526 29.3602 54.8218 28.7631 55.8349C28.1955 56.8236 27.3437 57.6188 26.3183 58.1171C25.2232 58.6398 24.021 58.8989 22.8079 58.8736Z" fill="black"/>
</g>
<defs>
<clipPath id="clip0_45_207">
<rect width="64" height="64" fill="white"/>
</clipPath>
</defs>
</svg>
