<svg width="120" height="64" viewBox="0 0 120 64" fill="none" xmlns="http://www.w3.org/2000/svg">
<path d="M17.9793 57.4222C22.3626 57.4222 25.9209 53.6267 25.9209 48.9511V40.48H17.9793C13.5959 40.48 10.0376 44.2756 10.0376 48.9511C10.0376 53.6267 13.5959 57.4222 17.9793 57.4222Z" fill="#D7FFC6"/>
<path d="M10.0293 32C10.0293 27.3245 13.5876 23.5289 17.971 23.5289H25.9126V40.48H17.971C13.5876 40.48 10.0293 36.6845 10.0293 32.0089V32Z" fill="#D7FFC6"/>
<path d="M10.0293 15.0489C10.0293 10.3733 13.5876 6.57779 17.971 6.57779H25.9126V23.5289H17.971C13.5876 23.5289 10.0293 19.7333 10.0293 15.0578V15.0489Z" fill="#D7FFC6"/>
<path d="M25.8457 6.57779H33.7874C38.1707 6.57779 41.729 10.3733 41.729 15.0489C41.729 19.7245 38.1707 23.52 33.7874 23.52H25.8457V6.57779Z" fill="#D7FFC6"/>
<path d="M41.8124 32C41.8124 36.6756 38.254 40.4711 33.8707 40.4711C29.4874 40.4711 25.8457 36.6756 25.8457 32C25.8457 27.3245 29.404 23.5289 33.7874 23.5289C38.1707 23.5289 41.729 27.3245 41.729 32H41.8124Z" fill="#D7FFC6"/>
<path d="M50.4956 20.6222V38.3822H52.6373V29.9022H57.7873V27.6978H52.6373V22.8444H59.3289V20.6222H50.4956ZM63.2039 24.2311C63.9789 24.2311 64.6039 23.5644 64.6039 22.7378C64.6039 21.9111 63.9706 21.3333 63.2039 21.3333C62.4373 21.3333 61.8039 22 61.8039 22.8267C61.8039 23.2267 61.9539 23.6 62.2206 23.8933C62.4873 24.1867 62.8373 24.3378 63.2206 24.3378L63.2039 24.2311ZM62.1206 26.4711V38.3822H64.1789V26.4711H62.0539H62.1206ZM72.2206 26.1156C69.3706 26.1156 67.3873 28.7822 67.3873 31.7333C67.3873 34.6844 69.3873 37.3333 72.2206 37.3333C72.8102 37.3443 73.3954 37.2244 73.9392 36.9811C74.4829 36.7377 74.9732 36.3764 75.3789 35.92V37.5022C75.373 38.4529 75.0273 39.3653 74.4123 40.0533C74.1016 40.3914 73.7307 40.6599 73.3215 40.8431C72.9122 41.0263 72.4728 41.1204 72.0289 41.12C71.3474 41.097 70.6871 40.8622 70.1289 40.4444L69.0456 42.4267C69.8776 42.9974 70.8384 43.3182 71.8269 43.3554C72.8154 43.3925 73.7951 43.1446 74.6626 42.6378C75.5302 42.131 76.2535 41.384 76.7565 40.4755C77.2595 39.567 77.5234 38.5306 77.5206 37.4756V26.4533H75.3789V27.52C74.9732 27.0636 74.4829 26.7023 73.9392 26.4589C73.3954 26.2156 72.8102 26.1045 72.2206 26.1156ZM69.5373 31.7333C69.4885 31.1554 69.5921 30.5745 69.8366 30.0562C70.081 29.5378 70.4565 29.1027 70.9206 28.8C71.8706 28.1778 73.0623 28.1778 74.0039 28.8C74.9456 29.4222 75.4789 30.56 75.3873 31.7333C75.4361 32.3112 75.3324 32.8922 75.0879 33.4105C74.8435 33.9289 74.468 34.364 74.0039 34.6667C73.0539 35.2889 71.8623 35.2889 70.9206 34.6667C69.9789 34.0444 69.4456 32.9067 69.5373 31.7333Z" fill="#D7FFC6"/>
<path d="M85.246 28.4444C84.63 28.4468 84.0399 28.7088 83.6044 29.1734C83.1688 29.638 82.9232 30.2674 82.921 30.9244V38.4622H80.7793V26.5511H82.921V27.5555C83.571 26.6311 84.6043 26.0978 85.6876 26.1155C87.0543 26.08 88.3293 26.8622 89.0043 28.1333C89.8376 26.8889 91.0376 26.1333 92.3376 26.1155C94.7793 26.1155 96.296 28.2133 96.3043 30.8089V38.3911H94.1626V30.8355C94.2254 30.3649 94.1605 29.8849 93.9756 29.4524C93.7907 29.0198 93.4935 28.6528 93.1192 28.3948C92.7449 28.1367 92.3091 27.9984 91.8635 27.9961C91.4178 27.9939 90.9808 28.1279 90.6043 28.3822C90.2298 28.6426 89.9334 29.0122 89.7502 29.4472C89.567 29.8821 89.5048 30.364 89.571 30.8355V38.3733H87.5126V30.8444C87.5104 30.1874 87.2648 29.558 86.8292 29.0934C86.3937 28.6288 85.8036 28.3668 85.1876 28.3644L85.246 28.4444ZM107.746 27.8222C107.258 27.2796 106.672 26.8491 106.023 26.5572C105.374 26.2652 104.675 26.1179 103.971 26.1244C100.779 26.1244 98.5543 29.0044 98.5543 32.3467C98.5543 35.6889 100.804 38.5689 103.971 38.5689C104.675 38.5754 105.374 38.4281 106.023 38.1362C106.672 37.8442 107.258 37.4137 107.746 36.8711V38.2222H109.888V26.3111H107.746V27.8222ZM100.663 32.4444C100.554 31.0222 101.204 29.6533 102.346 28.9067C103.488 28.16 104.846 28.16 106.063 28.9067C106.62 29.2756 107.071 29.8005 107.368 30.4243C107.665 31.0481 107.796 31.7469 107.746 32.4444C107.854 33.8667 107.204 35.2355 106.063 35.9822C104.921 36.7289 103.563 36.7289 102.346 35.9822C101.789 35.6133 101.337 35.0883 101.04 34.4645C100.743 33.8407 100.613 33.142 100.663 32.4444Z" fill="#D7FFC6"/>
</svg>
