<svg width="120" height="64" viewBox="0 0 120 64" fill="none" xmlns="http://www.w3.org/2000/svg">
<path d="M72.0302 28.0213C70.3302 28.0213 69.0622 28.912 69.0622 31.056C69.0622 32.656 69.8972 33.792 71.9372 33.792C73.6672 33.792 74.8422 32.704 74.8422 30.9888C74.8422 29.0421 73.7922 28.0213 72.0302 28.0213ZM68.6302 43.1573C68.2272 43.6843 67.8262 44.2453 67.8262 44.8907C67.8262 46.208 69.4012 46.6059 71.5662 46.6059C73.3592 46.6059 75.8012 46.4725 75.8012 44.6933C75.8012 43.6373 74.6262 43.5712 73.1412 43.472L68.6412 43.1435L68.6302 43.1573ZM77.7802 28.1195C78.3352 28.88 78.9242 29.9328 78.9242 31.4507C78.9242 35.1093 76.2242 37.2533 72.3402 37.2533C71.3402 37.2533 70.4652 37.12 69.8972 36.9568L68.8772 38.6901L71.9072 38.8875C77.2572 39.2501 80.4072 39.4165 80.4072 43.7995C80.4072 47.5925 77.2872 49.7323 71.9072 49.7323C66.3122 49.7323 64.1802 48.2155 64.1802 45.5989C64.1802 44.1163 64.8002 43.3237 65.8802 42.2347C64.8602 41.776 64.5202 40.9504 64.5202 40.0608C64.5202 39.3355 64.8602 38.6741 65.4172 38.0608L67.3332 36.0821C65.8182 35.2928 64.6732 33.5755 64.6732 31.1488C64.6732 27.3568 67.0232 24.7531 71.7532 24.7531C73.0832 24.7531 73.8872 24.8843 74.5982 25.0837H80.6262V27.8859L77.7812 28.1163M86.0632 22.1269C84.3132 22.1269 83.2812 21.0389 83.2812 19.1573C83.2812 17.2757 84.3012 16.256 86.0632 16.256C87.8562 16.256 88.8762 17.28 88.8762 19.1573C88.8762 21.0347 87.8552 22.1269 86.0632 22.1269ZM82.0632 41.9435V39.3408L83.6412 39.1104C84.0732 39.0443 84.1362 38.9451 84.1362 38.4491V28.7573C84.1362 28.3947 84.0432 28.1643 83.7332 28.064L82.0632 27.4379L82.4032 24.7691H88.8032V38.4544C88.8032 38.9824 88.8332 39.0475 89.2982 39.1157L90.8732 39.3461V41.9467H82.0602M103.11 40.6667C101.78 41.36 99.8322 42 98.0702 42C94.3902 42 93.0002 40.4192 93.0002 36.6912V28.0512C93.0002 27.8539 93.0002 27.7205 92.7502 27.7205H90.6002V24.7872C93.3202 24.4672 94.4032 23.0059 94.7432 19.4112H97.6802V24.0939C97.6802 24.3232 97.6802 24.4245 97.9282 24.4245H102.288V27.7205H97.6702V35.5872C97.6702 37.5339 98.1042 38.2912 99.7702 38.2912C100.636 38.2912 101.52 38.0608 102.274 37.7643L103.109 40.6656" fill="#D7FFC6"/>
<path d="M50.6698 31.2L32.1378 11.4347C31.0718 10.2965 29.3408 10.2965 28.2728 11.4347L24.4258 15.5392L29.3058 20.7445C30.4408 20.336 31.7408 20.6112 32.6428 21.5733C33.0735 22.0335 33.3742 22.6135 33.5105 23.2473C33.6468 23.881 33.6133 24.5429 33.4138 25.1573L38.1178 30.1749C39.2428 29.7568 40.5678 30.0288 41.4778 30.9963C41.8821 31.4266 42.173 31.963 42.321 32.5515C42.4691 33.1399 42.4692 33.7596 42.3213 34.348C42.1733 34.9365 41.8826 35.473 41.4784 35.9035C41.0742 36.3339 40.5707 36.6431 40.0188 36.8C39.4674 36.9577 38.8868 36.9578 38.3354 36.8001C37.784 36.6424 37.2813 36.3326 36.8778 35.9019C35.9228 34.8821 35.6878 33.3845 36.1708 32.1291L31.7958 27.4624V39.7771C32.0958 39.9413 32.3978 40.1579 32.6558 40.4331C33.9258 41.7877 33.9258 43.9829 32.6558 45.3397C32.354 45.6621 31.9955 45.9178 31.6009 46.0923C31.2064 46.2668 30.7834 46.3566 30.3563 46.3566C29.9292 46.3566 29.5062 46.2668 29.1117 46.0923C28.7171 45.9178 28.3586 45.6621 28.0568 45.3397C26.7868 43.9819 26.7868 41.7877 28.0568 40.4331C28.3616 40.1082 28.7235 39.8509 29.1218 39.6757V27.2491C28.7468 27.0784 28.3718 26.8288 28.0568 26.5024C27.6004 26.0158 27.2901 25.3954 27.1654 24.7201C27.0408 24.0448 27.1074 23.3452 27.3568 22.7104L22.5448 17.5765L9.8298 31.1072C9.31868 31.6549 9.03174 32.3963 9.03174 33.1691C9.03174 33.9419 9.31868 34.6832 9.8298 35.2309L28.3628 54.9963C29.4288 56.1344 31.1598 56.1344 32.2278 54.9963L50.6698 35.3237C51.1809 34.776 51.4679 34.0347 51.4679 33.2619C51.4679 32.4891 51.1809 31.7477 50.6698 31.2Z" fill="#D7FFC6"/>
</svg>
