<svg width="153" height="25" viewBox="0 0 153 25" fill="none" xmlns="http://www.w3.org/2000/svg">
<path d="M147.078 24.0302L145.591 19.9966H133.747L132.26 24.0302H126.367L135.664 0H143.674L153 24.0302H147.078ZM135.349 15.6769H143.989L140.213 5.4068H139.126L135.349 15.6769Z" fill="#D7FFC6"/>
<path d="M104.964 24.0302V0H125.19V4.66301H110.657V9.92677H124.675V14.0462H110.657V19.3386H125.19V24.0302H104.964Z" fill="#D7FFC6"/>
<path d="M89.9585 0C99.2845 0 102.832 5.17794 102.832 12.0151C102.832 18.8523 99.2845 24.0302 89.9585 24.0302H78.916V0H89.9585ZM89.9299 19.2242C94.5929 19.2242 97.1103 16.6495 97.1103 12.0151C97.1103 7.38071 94.5929 4.80604 89.9299 4.80604H84.6661L84.6089 19.2242H89.9299Z" fill="#D7FFC6"/>
<path d="M52.5996 24.0302V0H59.2079L70.3648 16.1632H70.9083V0H76.4868V24.0302H69.9929L58.693 7.86704H58.1781V24.0302H52.5996Z" fill="#D7FFC6"/>
<path d="M29.9038 24.0302V0H50.1292V4.66301H35.5967V9.92677H49.6143V14.0462H35.5967V19.3386H50.1292V24.0302H29.9038Z" fill="#D7FFC6"/>
<path d="M21.7573 24.0302V0H27.4502V24.0302H21.7573Z" fill="#D7FFC6"/>
<path d="M0 24.0302V0H5.69287V19.2528H19.5389V24.0302H0Z" fill="#D7FFC6"/>
</svg>
