<svg width="64" height="64" viewBox="0 0 64 64" fill="none" xmlns="http://www.w3.org/2000/svg">
<path fill-rule="evenodd" clip-rule="evenodd" d="M64 14.936V4.24533C63.9995 4.08507 63.957 3.92773 63.8768 3.78898C63.7966 3.65024 63.6814 3.53493 63.5428 3.45455C63.4041 3.37416 63.2468 3.33151 63.0866 3.33083C62.9263 3.33014 62.7687 3.37146 62.6293 3.45066L55.5893 7.472C55.309 7.63261 55.076 7.86442 54.914 8.14396C54.752 8.42351 54.6667 8.74089 54.6667 9.064V19.7547C54.6667 20.4587 55.4267 20.9013 56.0373 20.5493L63.0773 16.528C63.3581 16.3672 63.5913 16.1349 63.7533 15.8549C63.9154 15.5748 64.0005 15.2596 64 14.936ZM1.37333 3.45333L21.7547 15.1413C22.0323 15.3004 22.3467 15.3841 22.6667 15.3841C22.9866 15.3841 23.301 15.3004 23.5787 15.1413L43.96 3.45333C44.0994 3.37347 44.2573 3.33162 44.418 3.33197C44.5786 3.33231 44.7364 3.37485 44.8754 3.45531C45.0145 3.53577 45.13 3.65134 45.2103 3.79045C45.2907 3.92956 45.3331 4.08734 45.3333 4.248V36.328C45.3333 36.9547 45.0133 37.536 44.4827 37.8747L32.0827 45.7493L40.376 50.6347C40.9627 50.9813 41.696 50.9733 42.2773 50.6107L54.5707 42.936C54.7024 42.8533 54.8109 42.7384 54.886 42.6022C54.9611 42.4659 55.0003 42.3129 55 42.1573V31.264C55 30.5867 55.3733 29.968 55.9653 29.648L62.6507 26.0587C62.7903 25.9841 62.9469 25.947 63.1052 25.9509C63.2635 25.9547 63.4181 25.9995 63.5539 26.0809C63.6898 26.1622 63.8023 26.2774 63.8804 26.415C63.9586 26.5527 63.9998 26.7083 64 26.8667V46.9493C64 47.6 63.6533 48.2027 63.0933 48.5307L42.2027 60.776C41.9147 60.9445 41.5863 61.0314 41.2527 61.0271C40.9191 61.0229 40.5929 60.9278 40.3093 60.752L24.4347 50.936C24.3016 50.8537 24.1918 50.7386 24.1157 50.6019C24.0396 50.4651 23.9998 50.3112 24 50.1547V40.4907C24 40.184 24.152 39.8987 24.408 39.728L35.1813 32.544C35.4328 32.3768 35.6391 32.15 35.7819 31.884C35.9247 31.6179 35.9996 31.3207 36 31.0187V19.312C35.9999 19.2472 35.9826 19.1837 35.9499 19.1278C35.9172 19.0719 35.8702 19.0258 35.8138 18.994C35.7573 18.9623 35.6935 18.9461 35.6287 18.9472C35.564 18.9482 35.5007 18.9664 35.4453 19L23.6053 26.104C23.3216 26.2744 22.997 26.3648 22.6661 26.3658C22.3351 26.3667 22.01 26.2781 21.7253 26.1093L9.72 18.9947C9.66429 18.9619 9.60091 18.9443 9.53627 18.9438C9.47162 18.9433 9.40797 18.9598 9.35174 18.9917C9.29551 19.0236 9.24867 19.0698 9.21595 19.1255C9.18323 19.1813 9.16577 19.2447 9.16533 19.3093V40.464C9.16507 40.6259 9.12193 40.7849 9.04031 40.9248C8.9587 41.0647 8.8415 41.1805 8.70065 41.2604C8.55979 41.3403 8.40029 41.3815 8.23835 41.3798C8.07641 41.3781 7.91781 41.3335 7.77867 41.2507L1.33333 37.384C0.506667 36.888 0 35.992 0 35.0267V4.248C0 3.544 0.762667 3.10133 1.37333 3.45333Z" fill="#D7FFC6"/>
</svg>
