<svg width="140" height="76" viewBox="0 0 140 76" fill="none" xmlns="http://www.w3.org/2000/svg">
<path d="M92.8737 25.4853H115.227V29.9655H106.36V53.5319H101.926V29.9655H92.8725L92.8737 25.4853ZM56.1097 25.4853V29.9655H38.192V37.1729H52.6015V41.6518H38.1932V49.0529H56.1097V53.5331H33.7587V29.9655H33.7563V25.4866L56.1097 25.4853ZM67.2723 25.498H61.4693L82.2523 53.5445H88.0717L77.679 39.5301L88.0553 25.5195L82.2523 25.5297L74.774 35.6136L67.2723 25.498ZM73.2258 45.5316L70.3208 41.6087L61.453 53.5661H67.2723L73.2258 45.5316Z" fill="#D7FFC6"/>
<path fill-rule="evenodd" clip-rule="evenodd" d="M33.9139 53.5319L13.1029 25.4752H7.56006V53.5205H11.9934V31.4703L28.3431 53.5319H33.9139Z" fill="#D7FFC6"/>
<path d="M116.223 53.3609C116.069 53.3632 115.916 53.332 115.773 53.2691C115.631 53.2063 115.501 53.113 115.392 52.9948C115.28 52.881 115.192 52.7428 115.133 52.5893C115.074 52.4358 115.046 52.2705 115.05 52.1043C115.047 51.764 115.161 51.4714 115.392 51.2265C115.501 51.1082 115.631 51.0148 115.774 50.9519C115.917 50.8891 116.07 50.858 116.225 50.8605C116.537 50.8605 116.809 50.9829 117.041 51.2278C117.153 51.3393 117.242 51.4748 117.303 51.6257C117.364 51.7765 117.396 51.9395 117.396 52.1043C117.395 52.328 117.338 52.5471 117.23 52.7377C117.125 52.9257 116.977 53.0817 116.801 53.1911C116.627 53.3039 116.426 53.3626 116.223 53.3609ZM123.792 41.5467H125.756V49.7648C125.753 50.5189 125.604 51.167 125.308 51.7091C125.016 52.2469 124.586 52.6811 124.072 52.9593C123.544 53.2498 122.93 53.3955 122.229 53.3963C121.59 53.3955 121.015 53.2722 120.505 53.0265C120.012 52.7974 119.591 52.4181 119.292 51.9346C118.992 51.4524 118.843 50.8512 118.844 50.1309H120.812C120.815 50.4467 120.88 50.719 121.007 50.9479C121.132 51.1722 121.313 51.3535 121.529 51.471C121.755 51.5934 122.013 51.6547 122.304 51.6547C122.619 51.6547 122.891 51.5837 123.109 51.4393C123.328 51.2975 123.497 51.0851 123.614 50.8022C123.729 50.5235 123.788 50.1777 123.792 49.7648V41.5467ZM133.84 44.7602C133.824 44.5278 133.759 44.3025 133.651 44.1012C133.543 43.8998 133.394 43.7276 133.216 43.5974C132.846 43.3179 132.368 43.1786 131.782 43.1794C131.42 43.1708 131.061 43.2383 130.723 43.3783C130.456 43.4901 130.221 43.6778 130.044 43.9217C129.888 44.1497 129.808 44.4098 129.803 44.7019C129.803 44.9468 129.856 45.1579 129.962 45.3353C130.066 45.516 130.209 45.6671 130.391 45.7887C130.58 45.9172 130.782 46.0217 130.992 46.1003C131.215 46.1848 131.437 46.2557 131.66 46.3131L132.684 46.5855C133.092 46.6858 133.491 46.8257 133.876 47.0035C134.247 47.1697 134.594 47.3928 134.906 47.6659C135.207 47.9285 135.453 48.257 135.629 48.6299C135.806 49.0056 135.895 49.4473 135.896 49.9548C135.896 50.638 135.732 51.24 135.406 51.7611C135.079 52.2779 134.607 52.6828 133.988 52.9758C133.373 53.2663 132.627 53.412 131.749 53.4128C130.902 53.4128 130.163 53.2709 129.542 52.9885C128.917 52.709 128.429 52.2986 128.078 51.7573C127.728 51.2168 127.539 50.559 127.511 49.7838H129.458C129.474 50.1538 129.597 50.509 129.808 50.7997C130.016 51.0682 130.286 51.2696 130.617 51.4039C130.95 51.5364 131.323 51.6027 131.734 51.6027C132.164 51.6027 132.543 51.5331 132.871 51.3937C133.196 51.2561 133.45 51.0619 133.634 50.8111C133.82 50.5645 133.914 50.2732 133.916 49.9371C133.92 49.66 133.831 49.3908 133.666 49.1796C133.501 48.9803 133.273 48.8131 132.981 48.678C132.648 48.5287 132.305 48.4076 131.955 48.3157L130.71 47.9737C129.811 47.7263 129.101 47.3505 128.58 46.8464C128.058 46.3423 127.798 45.6714 127.798 44.8337C127.798 44.1454 127.974 43.5425 128.325 43.0249C128.674 42.5072 129.15 42.1053 129.754 41.819C130.361 41.531 131.046 41.3875 131.81 41.3883C132.584 41.3875 133.264 41.531 133.849 41.819C134.435 42.1053 134.895 42.503 135.228 43.0122C135.563 43.5189 135.735 44.1015 135.745 44.7602H133.84Z" fill="#D7FFC6"/>
</svg>
