<svg width="164" height="44" viewBox="0 0 164 44" fill="none" xmlns="http://www.w3.org/2000/svg">
<path d="M109.077 0.812012H137.458V7.45214H126.2V42.3799H120.57V7.45214H109.076L109.077 0.812012ZM62.4003 0.812012V7.45214H39.6515V18.1342H57.9462V24.7724H39.6529V35.7417H62.4003V42.3818H34.0228V7.45214H34.0198V0.813888L62.4003 0.812012ZM76.5728 0.830782H69.2051L95.5919 42.3987H102.98L89.7854 21.6279L102.96 0.862697L95.5919 0.877718L86.0972 15.8232L76.5728 0.830782ZM84.1315 30.5227L80.4433 24.7086L69.1844 42.4306H76.5728L84.1315 30.5227Z" fill="#D7FFC6"/>
<path fill-rule="evenodd" clip-rule="evenodd" d="M34.2198 42.3798L7.79745 0.796875H0.760094V42.3629H6.3888V9.68229L27.1469 42.3798H34.2198Z" fill="#D7FFC6"/>
<path d="M138.723 42.1264C138.527 42.1299 138.333 42.0836 138.151 41.9905C137.97 41.8973 137.805 41.759 137.666 41.5839C137.525 41.4151 137.413 41.2103 137.338 40.9829C137.263 40.7554 137.227 40.5104 137.232 40.2641C137.228 39.7597 137.373 39.326 137.666 38.9631C137.805 38.7877 137.97 38.6493 138.152 38.5561C138.334 38.4629 138.528 38.4168 138.724 38.4205C139.121 38.4205 139.467 38.602 139.761 38.965C139.903 39.1302 140.016 39.331 140.094 39.5546C140.171 39.7783 140.211 40.0198 140.211 40.2641C140.211 40.5955 140.138 40.9203 140.001 41.2027C139.867 41.4815 139.679 41.7127 139.456 41.8748C139.235 42.042 138.98 42.129 138.723 42.1264ZM148.331 24.6165H150.826V36.7966C150.822 37.9143 150.632 38.8749 150.257 39.6784C149.886 40.4754 149.341 41.119 148.687 41.5313C148.017 41.9618 147.238 42.1777 146.348 42.179C145.536 42.1777 144.806 41.995 144.159 41.6308C143.533 41.2912 142.998 40.7292 142.618 40.0125C142.238 39.2979 142.048 38.4068 142.049 37.3392H144.548C144.552 37.8073 144.635 38.2109 144.796 38.5501C144.955 38.8826 145.185 39.1513 145.459 39.3254C145.746 39.5069 146.073 39.5976 146.443 39.5976C146.843 39.5976 147.188 39.4925 147.465 39.2785C147.743 39.0682 147.957 38.7535 148.106 38.3342C148.252 37.9212 148.327 37.4087 148.331 36.7966V24.6165ZM161.089 29.3793C161.068 29.0349 160.986 28.701 160.849 28.4025C160.712 28.1041 160.523 27.8488 160.297 27.6559C159.828 27.2416 159.221 27.0351 158.476 27.0364C158.017 27.0236 157.56 27.1237 157.131 27.3311C156.792 27.4969 156.495 27.7751 156.269 28.1365C156.072 28.4744 155.97 28.8599 155.964 29.2929C155.964 29.6559 156.031 29.9688 156.166 30.2316C156.298 30.4994 156.48 30.7235 156.711 30.9037C156.95 31.094 157.206 31.249 157.474 31.3655C157.756 31.4907 158.038 31.5958 158.321 31.6809L159.621 32.0845C160.14 32.2333 160.646 32.4406 161.135 32.7041C161.606 32.9505 162.046 33.2811 162.443 33.6859C162.825 34.0751 163.137 34.5619 163.36 35.1146C163.585 35.6715 163.698 36.3261 163.699 37.0782C163.699 38.0908 163.492 38.9831 163.077 39.7553C162.662 40.5213 162.062 41.1214 161.277 41.5557C160.496 41.9862 159.549 42.2021 158.435 42.2034C157.359 42.2034 156.42 41.9931 155.632 41.5745C154.839 41.1602 154.22 40.5519 153.773 39.7497C153.329 38.9487 153.089 37.9737 153.054 36.8248H155.526C155.546 37.3732 155.702 37.8997 155.97 38.3304C156.235 38.7284 156.577 39.0269 156.997 39.2259C157.42 39.4224 157.893 39.5207 158.416 39.5207C158.962 39.5207 159.443 39.4174 159.858 39.2109C160.271 39.0069 160.594 38.719 160.827 38.3473C161.064 37.9819 161.184 37.5501 161.186 37.052C161.191 36.6414 161.078 36.2423 160.869 35.9293C160.659 35.634 160.369 35.3861 159.999 35.1859C159.576 34.9647 159.14 34.7852 158.696 34.649L157.115 34.1421C155.974 33.7754 155.072 33.2185 154.41 32.4713C153.749 31.7241 153.418 30.7297 153.418 29.4882C153.418 28.4682 153.641 27.5746 154.087 26.8074C154.53 26.0402 155.135 25.4444 155.902 25.0201C156.672 24.5934 157.542 24.3806 158.512 24.3818C159.494 24.3806 160.357 24.5934 161.101 25.0201C161.845 25.4444 162.428 26.0339 162.852 26.7886C163.277 27.5395 163.495 28.4031 163.508 29.3793H161.089Z" fill="#D7FFC6"/>
</svg>
