<svg width="64" height="64" viewBox="0 0 64 64" fill="none" xmlns="http://www.w3.org/2000/svg">
<g clip-path="url(#clip0_45_214)">
<path d="M57.3271 12.44C53.4585 7.43047 48.1912 3.68069 42.1914 1.66491C36.1915 -0.350877 29.7287 -0.542121 23.6202 1.11536C17.5116 2.77285 12.0318 6.2046 7.87382 10.9766C3.71579 15.7486 1.06631 21.6465 0.260449 27.9244C-0.545409 34.2023 0.528559 40.5782 3.34653 46.2457C6.16449 51.9131 10.5999 56.6177 16.0917 59.7642C21.5836 62.9108 27.8852 64.358 34.1996 63.923C40.5141 63.4879 46.5577 61.19 51.5661 57.32C65.5461 46.516 68.1271 26.425 57.3271 12.44Z" fill="#D7FFC6"/>
<path d="M42.7928 20.388L29.2998 33.988L25.4868 30.068C38.7668 16.788 40.0988 17.988 42.7928 20.388Z" fill="black"/>
<path d="M29.3001 34.36C29.1806 34.3571 29.0665 34.3096 28.9802 34.227L25.1402 30.387C25.0537 30.2975 25.0054 30.1779 25.0054 30.0535C25.0054 29.9291 25.0537 29.8095 25.1402 29.72C38.2332 16.627 40.0201 17.24 43.1131 20.04C43.2181 20.124 43.2771 20.252 43.2731 20.387C43.2931 20.517 43.2432 20.65 43.1402 20.734L29.6472 34.228C29.5522 34.315 29.4291 34.361 29.3001 34.36ZM26.1532 30.067L29.3001 33.214L42.1001 20.414C41.6582 19.8601 41.0276 19.4886 40.3289 19.3706C39.6302 19.2525 38.9126 19.3961 38.3132 19.774C35.9932 20.814 32.2602 23.987 26.1532 30.067Z" fill="#D7FFC6"/>
<path d="M33.1668 37.748L29.4868 33.988L42.9798 20.654C46.6068 24.201 41.2198 30.122 33.1668 37.748Z" fill="black"/>
<path d="M33.1672 38.228C33.0492 38.2186 32.9371 38.172 32.8472 38.095L29.0872 34.415C29.0308 34.2782 29.0308 34.1247 29.0872 33.988C29.0472 33.876 29.0472 33.753 29.0872 33.641L42.5802 20.148C42.7752 19.965 43.0782 19.965 43.2732 20.148C44.1582 20.962 44.6432 22.12 44.6062 23.321C44.6062 26.921 40.4992 31.454 33.5132 38.068C33.4199 38.1604 33.2981 38.217 33.1672 38.228ZM30.1802 33.988L33.1932 37C38.5262 31.96 43.6202 26.76 43.6462 23.24C43.6752 22.4938 43.4285 21.763 42.9532 21.187L30.1802 33.988Z" fill="#D7FFC6"/>
<path d="M25.5931 30.148L28.2601 32.815C28.2771 32.83 28.2907 32.8485 28.3001 32.8692C28.3094 32.8899 28.3142 32.9123 28.3142 32.935C28.3142 32.9577 28.3094 32.9801 28.3001 33.0008C28.2907 33.0215 28.2771 33.04 28.2601 33.055L22.6331 34.255C22.4001 34.305 22.1631 34.193 22.0511 33.983C21.9391 33.773 21.9811 33.513 22.1531 33.348L25.4331 30.095C25.4331 30.095 25.5401 30.095 25.5931 30.148Z" fill="black"/>
<path d="M22.5 34.788C22.3222 34.7858 22.1479 34.738 21.9939 34.6492C21.8398 34.5605 21.7111 34.4337 21.62 34.281C21.41 33.884 21.485 33.395 21.807 33.081L25.06 29.801C25.1773 29.6962 25.3291 29.6382 25.4865 29.6382C25.6438 29.6382 25.7957 29.6962 25.913 29.801L28.58 32.468C28.738 32.618 28.8 32.845 28.74 33.055C28.68 33.265 28.504 33.432 28.287 33.482L22.66 34.682L22.5 34.788ZM25.487 30.735L22.474 33.748L27.461 32.681L25.487 30.735Z" fill="#D7FFC6"/>
<path d="M49.9669 12.894C48.0369 11.032 45.0049 10.954 42.9809 12.711C40.9569 14.468 40.6109 17.484 42.1869 19.654C43.7629 21.824 46.7339 22.432 49.0339 21.054L45.4069 17.427L49.9669 12.894Z" fill="black"/>
<path d="M46.3672 22.28C45.2584 22.2658 44.1782 21.9256 43.2614 21.3018C42.3445 20.678 41.6315 19.7982 41.2112 18.772C40.3512 16.674 40.8272 14.266 42.4112 12.654C43.4788 11.606 44.9152 11.0188 46.4112 11.0188C47.9073 11.0188 49.3436 11.606 50.4112 12.654C50.5132 12.74 50.5712 12.867 50.5712 13.001C50.571 13.0669 50.5566 13.132 50.529 13.1919C50.5013 13.2518 50.4612 13.305 50.4112 13.348L46.0912 17.428L49.3712 20.655C49.4244 20.7057 49.4643 20.7687 49.4874 20.8385C49.5106 20.9082 49.5164 20.9825 49.5042 21.055C49.4963 21.1249 49.4731 21.1922 49.4363 21.2522C49.3995 21.3122 49.35 21.3633 49.2912 21.402C48.41 21.9528 47.3971 22.2567 46.3582 22.282L46.3672 22.28ZM46.3672 11.933C44.4672 11.943 42.7672 13.086 42.0542 14.833C41.3412 16.58 41.7292 18.591 43.0612 19.933C44.4172 21.296 46.4612 21.688 48.2342 20.92L45.0872 17.773C44.9822 17.689 44.9232 17.561 44.9272 17.426C44.9312 17.301 44.9892 17.184 45.0872 17.106L49.2472 12.919C48.4202 12.285 47.4092 11.94 46.3672 11.933Z" fill="#D7FFC6"/>
<path d="M50.0468 12.974L45.4868 17.507L49.1138 21.134C49.4789 20.9244 49.8187 20.6738 50.1268 20.387C52.1028 18.287 52.0668 15.019 50.0468 12.974Z" fill="black"/>
<path d="M49.033 21.534C48.9731 21.5372 48.9132 21.527 48.8578 21.504C48.8024 21.4809 48.7529 21.4457 48.713 21.401L45.086 17.774C44.981 17.69 44.922 17.562 44.926 17.427C44.93 17.302 44.988 17.185 45.086 17.107L49.619 12.654C49.6628 12.588 49.7222 12.5338 49.792 12.4964C49.8618 12.4589 49.9398 12.4393 50.019 12.4393C50.0982 12.4393 50.1762 12.4589 50.246 12.4964C50.3158 12.5338 50.3752 12.588 50.419 12.654C50.9511 13.1754 51.3739 13.7978 51.6625 14.4846C51.9511 15.1714 52.0998 15.909 52.0998 16.654C52.0998 17.399 51.9511 18.1366 51.6625 18.8234C51.3739 19.5102 50.9511 20.1326 50.419 20.654C50.1051 20.987 49.7459 21.2741 49.352 21.507C49.2528 21.557 49.1391 21.5667 49.033 21.534ZM46.1 17.428L49.113 20.441C49.3202 20.2957 49.5164 20.1353 49.7 19.961C50.5857 19.0777 51.0846 17.8789 51.087 16.628C51.089 15.5085 50.681 14.4271 49.94 13.588L46.1 17.428Z" fill="#D7FFC6"/>
<path d="M43.3529 20.948C42.6029 20.244 41.4359 20.244 40.6859 20.948L28.6069 33L30.6069 35.027L43.3799 23.827C43.7749 23.45 43.9959 22.927 43.9899 22.381C43.9839 21.835 43.7539 21.317 43.3529 20.948Z" fill="black"/>
<path d="M30.4998 35.508C30.3803 35.5051 30.2662 35.4576 30.1798 35.375L28.1528 33.348C28.0664 33.2585 28.0181 33.1389 28.0181 33.0145C28.0181 32.8901 28.0664 32.7705 28.1528 32.681L40.2328 20.654C41.1908 19.698 42.7428 19.698 43.6998 20.654C44.1798 21.134 44.4398 21.789 44.4198 22.467C44.3918 23.141 44.0938 23.775 43.5928 24.227L30.8198 35.427C30.7268 35.493 30.6128 35.522 30.4998 35.508ZM29.0868 33L30.4198 34.36L42.9528 23.453C43.2628 23.183 43.4478 22.797 43.4598 22.386C43.4718 21.975 43.3098 21.573 43.0068 21.293C42.4238 20.713 41.4828 20.713 40.8998 21.293L29.0868 33Z" fill="#D7FFC6"/>
<path d="M19.2472 46.734C19.2131 46.7804 19.1947 46.8364 19.1947 46.894C19.1947 46.9516 19.2131 47.0076 19.2472 47.054L19.7802 49.374C19.8262 49.651 19.6932 49.927 19.4482 50.074C19.3294 50.1435 19.1916 50.1735 19.0547 50.1596C18.9177 50.1458 18.7887 50.0889 18.6862 49.997L15.0332 46.477L26.4202 35H30.3672L33.0342 37.667C28.8739 41.3044 24.2352 44.3551 19.2472 46.734Z" fill="black"/>
<path d="M19.0069 50.654C18.7049 50.648 18.4069 50.524 18.2069 50.307L14.7139 46.814C14.6089 46.73 14.5499 46.602 14.5539 46.467C14.5579 46.342 14.6159 46.225 14.7139 46.147L26.1799 34.654C26.2441 34.5858 26.328 34.5393 26.4199 34.521H30.3929C30.4964 34.4844 30.6094 34.4844 30.7129 34.521L33.3799 37.188C33.4829 37.283 33.5329 37.423 33.5129 37.561C33.5148 37.6273 33.5013 37.6931 33.4736 37.7533C33.4458 37.8135 33.4045 37.8664 33.3529 37.908L33.1399 38.095C28.9628 41.5773 24.3673 44.5245 19.4599 46.868L19.9669 49.028C20.0061 49.1946 20.0076 49.3679 19.9713 49.5352C19.935 49.7025 19.8618 49.8595 19.7571 49.9949C19.6523 50.1303 19.5187 50.2406 19.3659 50.3178C19.2131 50.395 19.045 50.4371 18.8739 50.441L19.0069 50.654ZM15.7539 46.467L18.8999 49.64C18.9292 49.6662 18.9671 49.6806 19.0064 49.6806C19.0457 49.6806 19.0836 49.6662 19.1129 49.64C19.1325 49.6128 19.1431 49.5801 19.1431 49.5465C19.1431 49.513 19.1325 49.4802 19.1129 49.453L18.5799 47.133C18.4939 46.79 18.6599 46.433 18.9799 46.28C23.7553 43.9677 28.2324 41.0843 32.3129 37.693L30.1259 35.506H26.5529L15.7539 46.467Z" fill="#D7FFC6"/>
<path d="M12.287 49.214L14.954 46.547L19.061 50.654L12.528 50.201C12.298 50.184 12.103 50.021 12.048 49.795C11.993 49.569 12.09 49.335 12.288 49.215L12.287 49.214Z" fill="black"/>
<path d="M19.1398 51.054L12.6328 50.601C12.2468 50.565 11.9148 50.301 11.7788 49.948C11.6428 49.595 11.7258 49.176 11.9928 48.894L14.6598 46.227C14.7493 46.1405 14.8689 46.0922 14.9933 46.0922C15.1177 46.0922 15.2373 46.1405 15.3268 46.227L19.4068 50.307C19.5228 50.467 19.5228 50.681 19.4068 50.84C19.3448 50.94 19.2508 51.016 19.1398 51.054ZM12.6328 49.561L17.9658 49.908L15.0328 47.161L12.6328 49.561Z" fill="#D7FFC6"/>
<path d="M30.74 35.322L25.353 36.149L28.473 33.056L30.74 35.322Z" fill="black"/>
<path d="M25.3528 36.654C25.1698 36.659 25.0028 36.554 24.9258 36.387C24.869 36.3097 24.8384 36.2164 24.8384 36.1205C24.8384 36.0246 24.869 35.9312 24.9258 35.854L28.0188 32.734C28.2138 32.551 28.5168 32.551 28.7118 32.734L30.9798 35C31.0251 35.0718 31.0491 35.1551 31.0491 35.24C31.0491 35.3249 31.0251 35.4081 30.9798 35.48C30.9575 35.5676 30.9105 35.6469 30.8444 35.7084C30.7782 35.77 30.6957 35.8111 30.6068 35.827L25.2738 36.654H25.3528ZM28.4728 33.747L26.7398 35.48L29.7268 35.027L28.4728 33.747Z" fill="#D7FFC6"/>
<path d="M30.7398 35.32L26.9798 35.8C26.8792 35.8228 26.7739 35.8127 26.6795 35.7709C26.5851 35.7292 26.5067 35.6582 26.4559 35.5684C26.405 35.4786 26.3845 35.3749 26.3972 35.2725C26.41 35.1701 26.4555 35.0745 26.5268 35L28.4738 33.053L30.7398 35.32Z" fill="black"/>
<path d="M26.8731 36.308C26.5181 36.305 26.1931 36.111 26.0201 35.801C25.9182 35.6185 25.8788 35.4077 25.9076 35.2007C25.9365 34.9936 26.0322 34.8017 26.1801 34.654L28.1271 32.707C28.3221 32.524 28.6251 32.524 28.8201 32.707L31.0871 34.974C31.1545 35.0379 31.2019 35.1199 31.2236 35.2102C31.2454 35.3005 31.2404 35.3952 31.2094 35.4827C31.1784 35.5703 31.1226 35.6469 31.0489 35.7034C30.9752 35.7599 30.8867 35.7938 30.7941 35.801L27.0611 36.281L26.8731 36.308ZM26.8731 35.321L29.7001 34.974L28.4471 33.721L26.8471 35.321H26.8731ZM50.0731 16.041C50.0228 15.9569 49.9435 15.8941 49.85 15.8646C49.7566 15.8351 49.6555 15.8409 49.5661 15.881C49.5219 15.9034 49.4827 15.9344 49.4508 15.9722C49.4188 16.0099 49.3948 16.0538 49.3801 16.101C49.3501 16.196 49.3601 16.299 49.4061 16.388C49.5931 16.781 49.5411 17.246 49.2731 17.588C49.2031 17.654 49.1731 17.745 49.1731 17.841C49.174 17.9348 49.2097 18.0249 49.2731 18.094C49.3415 18.121 49.4177 18.121 49.4861 18.094C49.5482 18.1096 49.6134 18.1079 49.6745 18.089C49.7357 18.0702 49.7906 18.0349 49.8331 17.987C50.0527 17.7182 50.1917 17.3927 50.2342 17.0482C50.2767 16.7036 50.2208 16.3551 50.0731 16.041Z" fill="#D7FFC6"/>
</g>
<defs>
<clipPath id="clip0_45_214">
<rect width="64" height="64" fill="white"/>
</clipPath>
</defs>
</svg>
