<svg width="176" height="64" viewBox="0 0 176 64" fill="none" xmlns="http://www.w3.org/2000/svg">
<path d="M34.0079 38.3448C37.2652 38.3448 39.9058 35.4779 39.9058 31.9413C39.9058 28.4048 37.2652 25.5378 34.0079 25.5378C30.7506 25.5378 28.11 28.4048 28.11 31.9413C28.11 35.4779 30.7506 38.3448 34.0079 38.3448Z" fill="#D7FFC6"/>
<path fill-rule="evenodd" clip-rule="evenodd" d="M34.008 18.9216C41.9268 18.9216 49.2831 20.1553 54.8298 22.2285C61.5127 24.7265 65.6216 28.5127 65.6216 31.9412C65.6216 35.514 61.267 39.5364 54.0904 42.118C48.6647 44.0696 41.5249 45.0885 34.008 45.0885C26.3011 45.0885 19.003 44.1322 13.5162 42.0965C6.57443 39.5204 2.39331 35.4459 2.39331 31.9412C2.39331 28.5406 6.31649 24.7835 12.9055 22.2894C18.4728 20.182 26.0108 18.9216 34.0069 18.9216H34.008Z" stroke="#D7FFC6" stroke-width="1.66272"/>
<path fill-rule="evenodd" clip-rule="evenodd" d="M23.5688 25.469C27.5249 18.0213 32.1841 11.7188 36.6093 7.53773C41.9409 2.50017 47.0147 0.527312 49.7501 2.2399C52.6008 4.02473 53.6347 10.13 52.1093 18.1693C50.9572 24.2474 48.2021 31.4712 44.4468 38.5411C40.5965 45.7897 36.1878 52.1759 31.8229 56.3182C26.2997 61.5603 20.9598 63.4573 18.1635 61.7064C15.4501 60.0088 14.4125 54.441 15.7141 46.9977C16.814 40.7087 19.5741 32.9895 23.5676 25.4689L23.5688 25.469Z" stroke="#D7FFC6" stroke-width="1.66272"/>
<path fill-rule="evenodd" clip-rule="evenodd" d="M23.5787 38.5602C19.6115 31.1209 16.9104 23.5893 15.7829 17.3389C14.4257 9.80794 15.3853 4.04996 18.1182 2.33239C20.9662 0.542327 26.3543 2.61883 32.0075 8.06868C36.2817 12.189 40.6707 18.387 44.4369 25.4502C48.2983 32.6918 51.1923 40.0284 52.3181 46.2027C53.7426 54.0161 52.5897 59.9861 49.7959 61.742C47.0852 63.4458 42.1248 61.6419 36.8355 56.7001C32.3664 52.5249 27.5851 46.0734 23.5787 38.5601V38.5602Z" stroke="#D7FFC6" stroke-width="1.66272"/>
<path fill-rule="evenodd" clip-rule="evenodd" d="M99.4764 48.3019L92.2473 36.444C95.9008 36.094 99.193 33.2198 99.193 27.9689C99.193 22.6258 95.7006 19.2063 90.8015 19.2063H80.0427V48.2798H83.3755V36.7278H88.7159L95.5411 48.2798L99.4764 48.3019ZM90.4027 33.568H83.3772V22.4527H90.4027C93.576 22.4527 95.743 24.7188 95.743 27.9891C95.743 31.2594 93.5743 33.5717 90.4027 33.5717V33.568ZM111.883 48.8233C115.056 48.8233 117.664 47.6902 119.592 45.599L118.146 43.4618C116.619 45.1624 114.372 46.1204 112.165 46.1204C107.99 46.1204 105.419 42.8078 105.178 38.8429H120.875V38.0138C120.875 31.6943 117.422 26.7234 111.559 26.7234C106.018 26.7234 102.005 31.65 102.005 37.7521C102.005 44.3351 106.14 48.8067 111.881 48.8067L111.883 48.8233ZM117.907 36.4422H105.18C105.341 33.2179 107.386 29.4225 111.523 29.4225C115.94 29.4225 117.866 33.3027 117.907 36.4422ZM140.874 48.3V33.8278C140.874 28.7279 137.463 26.7215 133.367 26.7215C130.193 26.7215 127.705 27.8546 125.618 30.2093L127.023 32.4754C128.749 30.4709 130.638 29.5552 132.966 29.5552C135.776 29.5552 137.865 31.1673 137.865 34.001V37.7927C136.299 35.8305 134.091 34.9148 131.44 34.9148C128.148 34.9148 124.653 37.1386 124.653 41.846C124.653 46.4226 128.145 48.8214 131.44 48.8214C134.05 48.8214 136.26 47.8191 137.865 45.9012V48.2963L140.874 48.3ZM132.525 46.4687C129.715 46.4687 127.746 44.5525 127.746 41.8921C127.746 39.1892 129.715 37.2713 132.525 37.2713C134.653 37.2713 136.699 38.1427 137.865 39.8875V43.8542C136.701 45.5972 134.653 46.4687 132.525 46.4687ZM155.434 48.8233C158.967 48.8233 161.054 47.2535 162.541 45.1624L160.533 43.1578C159.249 45.0316 157.603 45.903 155.612 45.903C151.477 45.903 148.909 42.4153 148.909 37.7521C148.909 33.089 151.478 29.6455 155.612 29.6455C157.62 29.6455 159.266 30.4746 160.533 32.3907L162.541 30.3861C161.056 28.2931 158.967 26.7252 155.434 26.7252C149.652 26.7252 145.758 31.5211 145.758 37.754C145.758 44.0311 149.652 48.8085 155.434 48.8085V48.8233ZM171.657 48.8233C173.422 48.8233 174.508 48.2558 175.272 47.4728L174.389 45.0316C173.987 45.5106 173.201 45.903 172.341 45.903C171.017 45.903 170.372 44.7699 170.372 43.2002V30.1227H174.309V27.2466H170.372V21.4927H167.36V27.2466H164.148V30.1245H167.36V43.9003C167.36 47.0398 168.806 48.827 171.657 48.827V48.8233Z" fill="#D7FFC6"/>
</svg>
