<svg width="140" height="76" viewBox="0 0 140 76" fill="none" xmlns="http://www.w3.org/2000/svg">
<path d="M30.3805 42.3621C32.6199 42.3621 34.4353 40.3911 34.4353 37.9597C34.4353 35.5283 32.6199 33.5573 30.3805 33.5573C28.1411 33.5573 26.3257 35.5283 26.3257 37.9597C26.3257 40.3911 28.1411 42.3621 30.3805 42.3621Z" fill="#D7FFC6"/>
<path fill-rule="evenodd" clip-rule="evenodd" d="M30.3806 29.0087C35.8248 29.0087 40.8823 29.8569 44.6956 31.2822C49.2901 32.9996 52.115 35.6026 52.115 37.9597C52.115 40.416 49.1212 43.1814 44.1873 44.9562C40.4571 46.298 35.5485 46.9984 30.3806 46.9984C25.0821 46.9984 20.0647 46.341 16.2925 44.9415C11.52 43.1704 8.64551 40.3692 8.64551 37.9597C8.64551 35.6218 11.3427 33.0388 15.8726 31.3241C19.7002 29.8752 24.8825 29.0087 30.3799 29.0087H30.3806Z" stroke="#D7FFC6" stroke-width="1.66272"/>
<path fill-rule="evenodd" clip-rule="evenodd" d="M23.2035 33.51C25.9233 28.3897 29.1265 24.0567 32.1688 21.1823C35.8343 17.7189 39.3225 16.3626 41.2031 17.54C43.163 18.7671 43.8738 22.9645 42.825 28.4914C42.0329 32.6701 40.1388 37.6365 37.5571 42.4971C34.91 47.4805 31.879 51.871 28.8782 54.7188C25.0809 58.3227 21.4098 59.627 19.4873 58.4232C17.6218 57.2561 16.9084 53.4282 17.8034 48.311C18.5595 43.9873 20.4571 38.6804 23.2026 33.5099L23.2035 33.51Z" stroke="#D7FFC6" stroke-width="1.66272"/>
<path fill-rule="evenodd" clip-rule="evenodd" d="M23.2106 42.5101C20.4831 37.3956 18.6261 32.2177 17.851 27.9205C16.9179 22.743 17.5777 18.7843 19.4565 17.6035C21.4145 16.3728 25.1189 17.8004 29.0054 21.5472C31.9439 24.3799 34.9614 28.641 37.5506 33.497C40.2053 38.4756 42.195 43.5195 42.9689 47.7644C43.9483 53.1361 43.1557 57.2405 41.235 58.4476C39.3714 59.619 35.961 58.3788 32.3246 54.9813C29.2522 52.1109 25.965 47.6755 23.2106 42.5101V42.5101Z" stroke="#D7FFC6" stroke-width="1.66272"/>
<path fill-rule="evenodd" clip-rule="evenodd" d="M75.39 49.2075L70.42 41.0552C72.9318 40.8145 75.1951 38.8385 75.1951 35.2285C75.1951 31.5552 72.7941 29.2043 69.426 29.2043H62.0293V49.1923H64.3206V41.2503H67.9921L72.6845 49.1923L75.39 49.2075ZM69.1518 39.0779H64.3218V31.4361H69.1518C71.3335 31.4361 72.8233 32.9941 72.8233 35.2425C72.8233 37.4908 71.3323 39.0805 69.1518 39.0805V39.0779ZM83.9195 49.5659C86.1011 49.5659 87.8943 48.7869 89.2196 47.3493L88.2256 45.8799C87.1756 47.0491 85.631 47.7077 84.1131 47.7077C81.2431 47.7077 79.4756 45.4303 79.31 42.7044H90.1016V42.1344C90.1016 37.7897 87.7275 34.3723 83.6966 34.3723C79.8875 34.3723 77.1283 37.7593 77.1283 41.9545C77.1283 46.4803 79.9715 49.5545 83.9183 49.5545L83.9195 49.5659ZM88.0611 41.0539H79.3111C79.422 38.8373 80.8278 36.2279 83.6721 36.2279C86.709 36.2279 88.0331 38.8955 88.0611 41.0539ZM103.851 49.2062V39.2565C103.851 35.7504 101.506 34.371 98.6895 34.371C96.5078 34.371 94.7975 35.15 93.3625 36.7688L94.3285 38.3268C95.515 36.9487 96.8135 36.3191 98.4141 36.3191C100.346 36.3191 101.782 37.4275 101.782 39.3756V41.9824C100.705 40.6334 99.1876 40.0039 97.3653 40.0039C95.102 40.0039 92.6986 41.5327 92.6986 44.7691C92.6986 47.9155 95.0996 49.5647 97.3653 49.5647C99.1596 49.5647 100.679 48.8756 101.782 47.557V49.2037L103.851 49.2062ZM98.1108 47.9471C96.1788 47.9471 94.8255 46.6298 94.8255 44.8007C94.8255 42.9425 96.1788 41.6239 98.1108 41.6239C99.5738 41.6239 100.981 42.2231 101.782 43.4226V46.1497C100.982 47.348 99.5738 47.9471 98.1108 47.9471ZM113.861 49.5659C116.29 49.5659 117.725 48.4867 118.747 47.0491L117.367 45.6709C116.483 46.9591 115.352 47.5583 113.983 47.5583C111.14 47.5583 109.375 45.1605 109.375 41.9545C109.375 38.7486 111.141 36.3812 113.983 36.3812C115.363 36.3812 116.495 36.9512 117.367 38.2685L118.747 36.8904C117.726 35.4515 116.29 34.3735 113.861 34.3735C109.886 34.3735 107.208 37.6707 107.208 41.9558C107.208 46.2713 109.886 49.5558 113.861 49.5558V49.5659ZM125.014 49.5659C126.227 49.5659 126.974 49.1758 127.499 48.6375L126.892 46.9591C126.616 47.2885 126.076 47.5583 125.484 47.5583C124.574 47.5583 124.131 46.7793 124.131 45.7001V36.7093H126.838V34.732H124.131V30.7762H122.06V34.732H119.852V36.7105H122.06V46.1814C122.06 48.3398 123.054 49.5685 125.014 49.5685V49.5659Z" fill="#D7FFC6"/>
</svg>
