<svg width="178" height="64" viewBox="0 0 178 64" fill="none" xmlns="http://www.w3.org/2000/svg">
<g clip-path="url(#clip0_192_93)">
<path d="M18.4782 21.4598C13.7581 17.9205 8.9788 15.1811 8.9788 11.1877C8.9788 8.78941 11.1084 6.33675 14.0441 6.33675C19.3396 6.33675 22.4483 11.816 25.5003 18.6649H27.3992V2.91106H14.1573C3.2256 2.91045 0 9.47517 0 14.6097C0 21.3462 5.81295 25.3396 12.1453 30.0194C16.58 33.2715 20.3218 36.2981 20.3218 39.7794C20.3218 43.5473 17.7306 45.7164 14.4504 45.7164C10.9393 45.7164 5.75764 41.149 2.13281 31.6764H0.230763V49.1427H15.3702C24.6974 49.1427 29.3591 41.8354 29.5314 35.9565C29.7628 29.1075 23.6021 25.2852 18.4782 21.4598ZM59.8695 43.7191V25.2815C59.8695 17.2915 54.86 15.1805 47.6066 15.1805H34.7111L34.7696 28.192H36.8993C39.1452 22.6546 42.367 18.6037 45.8228 18.6037C48.817 18.6037 50.1984 21.1719 50.1984 23.8538V26.3645C45.3644 29.2175 32.4086 31.6158 32.4086 40.2928C32.4086 45.3149 35.9196 49.4819 41.0435 49.4819C45.4776 49.4819 48.5856 46.6295 50.1392 43.2613C50.4285 46.0593 52.2104 49.1403 56.4137 49.1403H63.0328V46.6295C60.9031 46.6295 59.8663 45.2018 59.8663 43.7197L59.8695 43.7191ZM50.0255 29.3368V40.8661C49.1056 42.1777 47.6072 43.6635 45.8806 43.6635C43.4617 43.6635 41.908 41.836 41.908 38.1842C41.908 34.0172 47.6072 31.3353 50.0261 29.3374L50.0255 29.3368ZM145.991 18.778C147.314 18.778 148.696 18.9491 149.389 20.5473L161.075 49.1977C158.829 54.2773 154.973 55.0767 148.065 52.9657V63.0123C151.576 63.0123 154.801 63.0704 155.608 62.8412C160.156 61.5296 162.919 52.6821 164.183 49.2589L174.086 22.7195C175.178 19.8097 176.101 17.6981 178 17.6981V15.1873H167.35V17.6981C170.978 17.6981 172.012 19.5805 170.227 24.6606L165.909 36.2474L160.383 22.1493C159.115 19.41 159.808 17.6981 162.454 17.6981V15.1873H135.052V3.76857H132.519C131.772 7.64896 127.568 15.1849 120.601 15.1849V17.6956H125.091V41.1534C125.091 45.0925 126.414 49.6561 134.128 49.6561H146.102V36.6434H144.145C143.28 39.6707 141.323 45.7201 137.467 45.7201C135.338 45.7201 135.048 43.3799 135.048 41.4981V18.778H145.991ZM116.573 43.7185V15.1811H103.449V17.6919C105.695 17.6919 106.674 19.0615 106.674 20.6604V43.7185C106.561 45.2593 105.523 46.6289 103.449 46.6289V49.1396H120.029V46.6289C118.417 46.6289 116.69 45.2012 116.576 43.7191L116.573 43.7185ZM78.6382 43.7185L78.6967 24.1991C80.0781 22.3717 81.518 20.7765 83.9337 20.7765C86.3494 20.7765 87.5617 22.6584 87.5617 24.9986V43.7185C87.5617 45.2012 86.5249 46.6289 84.3952 46.6289V49.1396H100.744V46.6289C98.6733 46.6289 97.6365 45.0301 97.6365 43.7191V24.1991C97.6365 18.0916 94.7007 14.4979 88.8846 14.4979C84.0507 14.4979 80.998 17.695 78.6967 21.0601V15.1811H65.1694V17.6919C67.5876 17.6919 68.5666 19.2901 68.5666 20.6604V43.7185C68.5666 45.2012 67.5291 46.6289 65.4001 46.6289V49.1396H81.7487V46.6289C79.6782 46.6289 78.6414 45.0301 78.6414 43.7191L78.6382 43.7185ZM110.819 11.6424C114.503 11.6424 116.808 9.07298 116.808 5.76282C116.808 2.45266 114.505 0 110.819 0C107.132 0 104.775 2.45266 104.775 5.76282C104.775 9.07298 107.249 11.6418 110.819 11.6418L110.819 11.6424Z" fill="#D7FFC6"/>
</g>
<defs>
<clipPath id="clip0_192_93">
<rect width="178" height="64" fill="white"/>
</clipPath>
</defs>
</svg>
