<svg width="106" height="117" viewBox="0 0 106 117" fill="none" xmlns="http://www.w3.org/2000/svg">
<g clip-path="url(#clip0_402_107)">
<path d="M86.2076 71.2707C96.9129 68.6295 104.133 60.8318 104.133 50.7702C104.133 37.5644 93.054 28.5089 77.245 28.5089H39.7476V65.2337H14.9377V0.452637H0V49.29C0 65.3208 12.8598 78.3138 28.7263 78.3138H52.5021C48.9783 78.3138 45.7897 79.7553 43.482 82.0869C41.1744 84.4185 39.7476 87.6401 39.7476 91.2004V116.548H77.9919C94.5478 116.548 106 106.738 106 92.6516C106 81.4581 98.2822 73.1572 86.2076 71.2707ZM54.5608 41.9663H77.8674C84.5893 41.9663 89.3196 46.6198 89.3196 53.1598C89.3196 60.203 84.2159 65.2337 76.7471 65.2337H54.5608V41.9663ZM78.7388 102.965H54.5608V78.3138H77.3695C85.3362 78.3138 90.8134 83.3446 90.8134 90.5135C90.8134 97.6824 86.2076 102.965 78.7388 102.965Z" fill="#D7FFC6"/>
</g>
<defs>
<clipPath id="clip0_402_107">
<rect width="106" height="117" fill="white"/>
</clipPath>
</defs>
</svg>
