<svg width="25" height="25" viewBox="0 0 25 25" fill="none" xmlns="http://www.w3.org/2000/svg">
<g clip-path="url(#clip0_408_383)">
<mask id="mask0_408_383" style="mask-type:luminance" maskUnits="userSpaceOnUse" x="0" y="0" width="25" height="25">
<path d="M24.0566 0.124023H0.150391V24.042H24.0566V0.124023Z" fill="white"/>
</mask>
<g mask="url(#mask0_408_383)">
<path d="M12.1035 24.0302C18.6426 24.0302 24.0566 18.6045 24.0566 12.0771C24.0566 5.53808 18.6309 0.124023 12.0918 0.124023C5.56445 0.124023 0.150391 5.53808 0.150391 12.0771C0.150391 18.6045 5.57617 24.0302 12.1035 24.0302ZM12.1035 22.0381C6.57227 22.0381 2.1543 17.6084 2.1543 12.0771C2.1543 6.5459 6.56055 2.11621 12.0918 2.11621C17.6231 2.11621 22.0645 6.5459 22.0645 12.0771C22.0645 17.6084 17.6348 22.0381 12.1035 22.0381Z" fill="#D7FFC6"/>
<path d="M12.0918 17.9482C14.541 17.9482 16.1816 16.3193 16.1816 15.5459C16.1816 15.2646 15.9121 15.1357 15.666 15.2529C14.8106 15.7217 13.791 16.249 12.0918 16.249C10.3926 16.249 9.37305 15.7099 8.5293 15.2529C8.27148 15.1357 8.00195 15.2646 8.00195 15.5459C8.00195 16.3193 9.64258 17.9482 12.0918 17.9482ZM8.62305 11.0342C9.36133 11.0342 10.0176 10.3662 10.0176 9.42871C10.0176 8.47949 9.37305 7.81152 8.62305 7.81152C7.88477 7.81152 7.24023 8.47949 7.24023 9.42871C7.24023 10.3662 7.88477 11.0342 8.62305 11.0342ZM15.5723 11.0342C16.3106 11.0342 16.9668 10.3662 16.9668 9.42871C16.9668 8.47949 16.3223 7.81152 15.5723 7.81152C14.834 7.81152 14.1895 8.47949 14.1895 9.42871C14.1895 10.3662 14.834 11.0342 15.5723 11.0342Z" fill="#D7FFC6"/>
</g>
</g>
<defs>
<clipPath id="clip0_408_383">
<rect width="25" height="25" fill="white"/>
</clipPath>
</defs>
</svg>
