<svg width="25" height="25" viewBox="0 0 25 25" fill="none" xmlns="http://www.w3.org/2000/svg">
<g clip-path="url(#clip0_201_93438)">
<path d="M12.1035 24.0303C18.6426 24.0303 24.0566 18.6046 24.0566 12.0772C24.0566 5.53814 18.6309 0.124084 12.0918 0.124084C5.5645 0.124084 0.150436 5.53814 0.150436 12.0772C0.150436 18.6046 5.57622 24.0303 12.1035 24.0303ZM12.1035 22.0382C6.57232 22.0382 2.15435 17.6085 2.15435 12.0772C2.15435 6.54596 6.5606 2.11627 12.0918 2.11627C17.6231 2.11627 22.0645 6.54596 22.0645 12.0772C22.0645 17.6085 17.6348 22.0382 12.1035 22.0382Z" fill="black" fill-opacity="0.85"/>
<path d="M12.0918 17.9483C14.541 17.9483 16.1816 16.3194 16.1816 15.546C16.1816 15.2647 15.9121 15.1358 15.666 15.253C14.8106 15.7218 13.791 16.2491 12.0918 16.2491C10.3926 16.2491 9.3731 15.71 8.52935 15.253C8.27153 15.1358 8.002 15.2647 8.002 15.546C8.002 16.3194 9.64263 17.9483 12.0918 17.9483ZM8.6231 11.0343C9.36138 11.0343 10.0176 10.3663 10.0176 9.42877C10.0176 8.47955 9.3731 7.81158 8.6231 7.81158C7.88482 7.81158 7.24028 8.47955 7.24028 9.42877C7.24028 10.3663 7.88482 11.0343 8.6231 11.0343ZM15.5723 11.0343C16.3106 11.0343 16.9668 10.3663 16.9668 9.42877C16.9668 8.47955 16.3223 7.81158 15.5723 7.81158C14.834 7.81158 14.1895 8.47955 14.1895 9.42877C14.1895 10.3663 14.834 11.0343 15.5723 11.0343Z" fill="black" fill-opacity="0.85"/>
</g>
<defs>
<clipPath id="clip0_201_93438">
<rect width="23.9062" height="23.918" fill="white" transform="translate(0.150436 0.124084)"/>
</clipPath>
</defs>
</svg>
