<svg width="140" height="76" viewBox="0 0 140 76" fill="none" xmlns="http://www.w3.org/2000/svg">
<path fill-rule="evenodd" clip-rule="evenodd" d="M19.6181 32.4641C21.1828 25.6629 25.0986 22.2623 31.3616 22.2623C40.758 22.2623 41.9302 29.91 46.6271 31.1871C49.7593 32.038 52.4989 30.7638 54.8473 27.3632C53.2826 34.163 49.3668 37.5636 43.1051 37.5636C33.7087 37.5636 32.5365 29.9159 27.8396 28.6388C24.7075 27.7879 21.9678 29.0621 19.6194 32.4627L19.6181 32.4641ZM7.87451 47.7655C9.44193 40.9642 13.3538 37.5636 19.6181 37.5636C29.0145 37.5636 30.1867 45.2114 34.8836 46.4884C38.0157 47.3393 40.7554 46.0652 43.1038 42.6645C41.5391 49.4658 37.6232 52.8664 31.3603 52.8664C21.9638 52.8664 20.7916 45.2187 16.0947 43.9416C12.9626 43.0907 10.223 44.3648 7.87451 47.7655Z" fill="url(#paint0_linear_45_193)"/>
<path fill-rule="evenodd" clip-rule="evenodd" d="M64.7294 22.9405H60.6943V20.3161H71.5804V22.9405H67.5471V34.8439H64.7294V22.9405ZM76.8506 33.5011C76.4772 33.9629 76.036 34.3545 75.5449 34.66C75.065 34.9589 74.4422 35.1083 73.6783 35.1083C73.2566 35.1106 72.8367 35.0486 72.4308 34.9244C72.0356 34.8018 71.6898 34.6121 71.3969 34.3555C71.1041 34.0988 70.8676 33.7712 70.6947 33.3689C70.5218 32.9666 70.4301 32.4916 70.4301 31.9322C70.4301 31.2005 70.58 30.6028 70.8817 30.1412C71.1841 29.6776 71.5912 29.3062 72.0639 29.0627C72.5508 28.8041 73.0978 28.6221 73.7047 28.5129C74.3172 28.4034 74.9353 28.3356 75.5555 28.3098L76.8118 28.2486V27.7199C76.8118 27.0686 76.6477 26.6203 76.3142 26.3789C75.9807 26.1376 75.5908 26.015 75.1427 26.015C74.1017 26.015 73.5089 26.4422 73.3607 27.2984L70.9611 27.0551C71.134 25.9441 71.5857 25.1396 72.3109 24.6415C73.036 24.1434 74.0135 23.8983 75.2397 23.8983C75.9896 23.8983 76.6283 23.994 77.154 24.1933C77.6798 24.3925 78.1033 24.6722 78.4208 25.0361C78.7464 25.4146 78.9846 25.8715 79.116 26.3694C79.2607 26.8904 79.3313 27.4804 79.3313 28.1317V34.8458H76.8506V33.5049V33.5011ZM76.7941 30.1028L75.6296 30.1641C75.0792 30.189 74.6345 30.2523 74.2975 30.348C73.9606 30.4438 73.6977 30.5626 73.5212 30.7043C73.3448 30.8461 73.216 31.0108 73.156 31.2024C73.096 31.3939 73.0625 31.6047 73.0625 31.8345C73.0625 32.187 73.1754 32.4667 73.3977 32.6678C73.62 32.8689 73.9359 32.9743 74.3328 32.9743C75.0104 32.9743 75.5608 32.8057 75.9843 32.4648C76.2225 32.2732 76.4183 32.0318 76.5665 31.7426C76.7147 31.4533 76.7906 31.0874 76.7906 30.6545V30.1048L76.7941 30.1028ZM81.4626 24.222H84.0915V34.842H81.4626V24.222ZM81.4273 20.3142H84.1268V22.8772H81.4273V20.3142ZM86.3393 20.3142H88.9682V34.842H86.3393V20.3142ZM90.145 24.222H92.9962L94.3671 31.2618L96.2409 24.3235H98.531L100.295 31.2828L101.666 24.2431H104.406L101.553 34.8631H99.0003L97.2536 27.8635L95.4893 34.8631H92.9945L90.1433 24.2431L90.145 24.222ZM105.601 24.222H108.23V34.842H105.601V24.222ZM105.566 20.3142H108.265V22.8772H105.566V20.3142ZM110.46 24.222H113.013V25.6874C113.401 25.0648 113.86 24.6089 114.389 24.3235C114.918 24.0381 115.474 23.8963 116.048 23.8963C117.163 23.8963 117.988 24.2124 118.526 24.8426C119.065 25.4729 119.335 26.4671 119.335 27.8233V34.842H116.707V28.2122C116.707 27.4459 116.577 26.9574 116.312 26.6854C116.048 26.4134 115.7 26.2793 115.262 26.2793C114.927 26.2793 114.634 26.3368 114.389 26.4421C114.144 26.5475 113.916 26.7065 113.704 26.9096C113.528 27.1011 113.382 27.3272 113.263 27.5915C113.145 27.8613 113.085 28.1567 113.087 28.4554V34.8439H110.44V24.2239L110.46 24.222ZM128.245 33.4398C127.575 34.5486 126.425 35.2029 125.205 35.1696C123.828 35.1696 122.805 34.6677 122.126 33.6639C121.447 32.6602 121.113 31.2694 121.113 29.4937C121.105 28.726 121.204 27.9614 121.406 27.2256C121.6 26.5398 121.877 25.9498 122.24 25.4556C122.597 24.9665 123.053 24.5732 123.573 24.3063C124.102 24.0381 124.693 23.9002 125.355 23.9002C125.842 23.9002 126.325 23.9959 126.807 24.1875C127.288 24.3791 127.742 24.7622 128.169 25.287V20.3218H130.798V34.8497H128.246V33.4455L128.245 33.4398ZM128.188 29.4113C128.188 28.7332 128.135 28.1911 128.012 27.7831C127.888 27.375 127.733 27.0456 127.496 26.787C127.271 26.5437 127.024 26.4038 126.755 26.3081C126.496 26.2343 126.228 26.1969 125.96 26.197C125.679 26.1956 125.4 26.2582 125.143 26.3809C124.885 26.5035 124.663 26.6931 124.467 26.9498C124.271 27.2065 124.119 27.5475 124.008 27.965C123.897 28.3826 123.839 28.8845 123.839 29.4707C123.839 30.1067 123.892 30.6392 124.015 31.0683C124.139 31.4974 124.268 31.8422 124.456 32.1066C124.645 32.3709 124.862 32.5605 125.113 32.6755C125.363 32.7904 125.633 32.867 125.921 32.867C126.545 32.867 127.059 32.6697 127.459 32.277C127.712 31.9997 127.901 31.6618 128.012 31.2905C128.128 30.9036 128.188 30.4055 128.188 29.7964V29.4324V29.4113Z" fill="#D7FFC6"/>
<path fill-rule="evenodd" clip-rule="evenodd" d="M86.7873 50.0162C86.7238 50.7901 86.558 51.5046 86.2898 52.1616C86.0294 52.8054 85.6533 53.3863 85.1835 53.8703C84.6856 54.3718 84.0975 54.7559 83.4562 54.9986C82.7752 55.2668 81.9847 55.4047 81.0832 55.4047C80.0704 55.4047 79.1777 55.2208 78.4084 54.855C77.6632 54.5083 77.002 53.9792 76.4764 53.3091C75.9559 52.6444 75.566 51.8398 75.3031 50.8954C75.0402 49.951 74.9097 48.9109 74.9097 47.773C74.9097 46.593 75.0508 45.5356 75.3402 44.5989C75.6295 43.6622 76.0424 42.8634 76.5787 42.1987C77.1151 41.5339 77.7679 41.0244 78.5301 40.6719C79.2923 40.3195 80.1586 40.1432 81.1237 40.1432C81.9742 40.1432 82.717 40.2582 83.3468 40.488C83.9767 40.7179 84.5113 41.0512 84.9436 41.4841C85.3758 41.9171 85.7199 42.4419 85.9845 43.0511C86.2595 43.7059 86.4547 44.3969 86.565 45.1065L83.7862 45.4935C83.6485 44.6391 83.3804 43.9667 82.9922 43.4783C82.604 42.9898 81.9724 42.7465 81.122 42.7465C80.0457 42.7465 79.2288 43.1833 78.6748 44.0587C78.1208 44.9341 77.8367 46.1697 77.8367 47.7711C77.8367 49.3859 78.1367 50.6445 78.7295 51.495C79.2747 52.3382 80.1735 52.8275 81.122 52.7976C81.9865 52.7976 82.6217 52.5562 83.0275 52.0754C83.4333 51.5946 83.6856 50.9069 83.7862 50.0104L86.7873 50.0162ZM90.8754 50.3035C90.9371 51.1981 91.2035 51.8494 91.6693 52.2574C92.1351 52.6654 92.8285 52.8704 93.7424 52.8704C94.18 52.8704 94.5505 52.8187 94.8505 52.7172C95.1504 52.6156 95.3939 52.4796 95.5827 52.3111C95.7628 52.1529 95.9015 51.9461 95.9849 51.7115C96.0682 51.4709 96.1095 51.2156 96.1067 50.9586C96.1067 50.5755 95.9779 50.2211 95.715 49.8897C95.4521 49.5584 94.9704 49.3151 94.2682 49.1676L92.5215 48.8228C91.8158 48.6887 91.2265 48.5105 90.7007 48.2941C90.1749 48.0776 89.7338 47.796 89.3774 47.4512C89.021 47.1064 88.7493 46.6811 88.5623 46.1793C88.3753 45.6774 88.28 45.0797 88.28 44.3882C88.2685 43.7528 88.4005 43.124 88.6646 42.5569C88.9196 42.0306 89.286 41.5776 89.7338 41.2351C90.1925 40.8826 90.7395 40.6145 91.3747 40.4306C92.0098 40.2467 92.7156 40.1566 93.4778 40.1566C94.4535 40.1566 95.2668 40.2792 95.9179 40.5206C96.5689 40.762 97.0947 41.0857 97.4952 41.488C97.8957 41.8902 98.1921 42.35 98.3862 42.8825C98.5803 43.4151 98.7091 43.961 98.7744 44.5299L96.1278 44.8939C95.9902 44.0932 95.7256 43.5147 95.3339 43.1641C94.9422 42.8136 94.3423 42.6354 93.5413 42.6354C93.0649 42.6354 92.6768 42.6795 92.368 42.7695C92.0592 42.8595 91.814 42.9726 91.627 43.1143C91.4547 43.2366 91.3177 43.4093 91.2317 43.6124C91.1576 43.8039 91.1188 43.9993 91.1188 44.2024C91.1188 44.7445 91.26 45.1525 91.5423 45.4226C91.8246 45.6927 92.301 45.9053 92.9767 46.0547L94.8152 46.4417C96.2672 46.7539 97.3311 47.2596 98.0086 47.955C98.6862 48.6504 99.0214 49.679 99.0214 50.9759C99.0214 51.6119 98.912 52.2019 98.6932 52.7382C98.4689 53.2802 98.1348 53.7602 97.7158 54.1424C97.239 54.5701 96.6874 54.8887 96.0943 55.0791C95.445 55.3032 94.6828 55.4143 93.8042 55.4143C91.9763 55.4143 90.5789 54.9929 89.6103 54.1424C88.6417 53.2918 88.1177 52.0352 88.0224 50.3073H90.8559L90.8754 50.3035ZM103.049 50.3035C103.111 51.1981 103.378 51.8494 103.843 52.2574C104.309 52.6654 105.008 52.8704 105.917 52.8704C106.358 52.8704 106.725 52.8187 107.028 52.7172C107.332 52.6156 107.571 52.4796 107.76 52.3111C107.94 52.1529 108.079 51.9461 108.163 51.7115C108.246 51.4709 108.287 51.2156 108.284 50.9586C108.279 50.5619 108.139 50.1812 107.891 49.8897C107.626 49.5584 107.146 49.3151 106.444 49.1676L104.697 48.8228C103.992 48.6887 103.402 48.5105 102.877 48.2941C102.351 48.0776 101.91 47.796 101.553 47.4512C101.197 47.1064 100.925 46.6811 100.736 46.1793C100.548 45.6774 100.454 45.0797 100.454 44.3882C100.442 43.7528 100.575 43.124 100.839 42.5569C101.096 42.0282 101.453 41.5857 101.908 41.216C102.363 40.8463 102.914 40.5953 103.549 40.4114C104.184 40.2275 104.89 40.1375 105.652 40.1375C106.628 40.1375 107.441 40.2601 108.092 40.5014C108.743 40.7428 109.267 41.0665 109.669 41.4688C110.072 41.8711 110.368 42.3308 110.56 42.8634C110.753 43.3959 110.883 43.9418 110.948 44.5108L108.302 44.8747C108.164 44.074 107.9 43.4955 107.508 43.145C107.116 42.7944 106.516 42.6163 105.715 42.6163C105.239 42.6163 104.851 42.6603 104.542 42.7503C104.233 42.8404 103.988 42.9534 103.801 43.0952C103.629 43.2175 103.492 43.3901 103.406 43.5932C103.33 43.7848 103.293 43.9802 103.293 44.1832C103.293 44.7253 103.434 45.1333 103.716 45.4034C103.999 45.6735 104.475 45.8862 105.153 46.0356L107.009 46.4379C108.461 46.7501 109.525 47.2558 110.202 47.9512C110.88 48.6465 111.215 49.6752 111.215 50.9721C111.222 51.5774 111.109 52.1774 110.887 52.7325C110.663 53.2748 110.329 53.7549 109.909 54.1366C109.479 54.5389 108.939 54.8492 108.286 55.0753C107.633 55.3013 106.875 55.4105 105.998 55.4105C104.17 55.4105 102.772 54.989 101.802 54.1385C100.832 53.288 100.309 52.0314 100.235 50.3035H103.049Z" fill="#D7FFC6"/>
<defs>
<linearGradient id="paint0_linear_45_193" x1="7.87451" y1="-4.93537" x2="60.743" y2="76.222" gradientUnits="userSpaceOnUse">
<stop offset="1" stop-color="#D7FFC6"/>
</linearGradient>
</defs>
</svg>
