<svg width="140" height="76" viewBox="0 0 140 76" fill="none" xmlns="http://www.w3.org/2000/svg">
<path d="M64.7499 51.8067H59.3599V52.4147C61.0446 52.4147 61.3246 52.7947 61.3246 55.0975V59.2433C61.3246 61.5613 61.0446 61.9869 59.3599 61.9869C58.0684 61.8045 57.1701 61.0115 55.9906 59.6093L54.5871 57.9627C56.4397 57.5827 57.4512 56.316 57.4512 54.9151C57.4512 53.1468 56.0477 51.7446 53.4087 51.7446H48.1307V52.3526C49.8154 52.3526 50.0954 52.7326 50.0954 55.0354V59.1812C50.0954 61.4992 49.8154 61.9248 48.1307 61.9248V62.5328H54.0831V61.9248C52.3984 61.9248 52.1184 61.4979 52.1184 59.1812V58.0235H52.6236L55.9369 62.5328H64.6962C69.0199 62.5328 70.8726 60.0337 70.8726 57.1077C70.9286 54.2425 69.0759 51.8041 64.7522 51.8041L64.7499 51.8067ZM52.1732 57.1102V52.7947H53.4099C54.7574 52.7947 55.3746 53.8308 55.3746 54.9898C55.3746 56.1488 54.7562 57.1229 53.4099 57.1229L52.1732 57.1102ZM64.8631 61.6195H64.6379C63.5716 61.6195 63.4012 61.3155 63.4012 59.8513V52.7833H64.8596C68.0037 52.7833 68.5649 55.2824 68.5649 57.1723C68.5649 59.1837 67.9466 61.6221 64.8596 61.6221L64.8631 61.6195ZM31.3972 58.3427L33.4739 51.6977C34.0922 49.7471 33.8239 49.1986 31.9012 49.1986V48.5273H37.5712V49.1986C35.6626 49.1986 35.2146 49.6863 34.4831 52.0638L31.0566 63.2067H30.6074L27.5192 53.0265L24.4299 63.2067H24.0367L20.7234 52.0511C19.9931 49.6736 19.5567 49.1859 17.8032 49.1859V48.5146H24.4299V49.1859C22.6332 49.1859 22.1841 49.6128 22.8012 51.6851L24.8231 58.33L27.8564 48.5133H28.4164L31.3972 58.3427ZM41.6149 63.099C38.3016 63.099 35.6066 60.477 35.6066 57.247C35.6066 54.0765 38.2899 51.395 41.6149 51.395C44.9399 51.395 47.6232 54.017 47.6232 57.247C47.6232 60.477 44.9399 63.099 41.6149 63.099ZM41.6149 52.3703C38.8639 52.3703 37.9096 55.0531 37.9096 57.1862C37.9096 59.3193 38.8639 62.0021 41.6149 62.0021C44.4219 62.0021 45.3774 59.3193 45.3774 57.1862C45.3774 55.1139 44.4231 52.3703 41.6149 52.3703ZM78.3381 62.0008V62.6721H71.4314V62.0008C73.4532 62.0008 73.7881 61.4523 73.7881 58.1603V52.9163C73.7881 49.6229 73.4381 49.1365 71.4314 49.1365V48.4652H77.6637C80.7519 48.4652 82.4937 50.1727 82.4937 52.4881C82.4937 54.7428 80.7531 56.5111 77.6637 56.5111H75.9791V58.2185C75.9791 61.4485 76.329 61.9983 78.3357 61.9983L78.3381 62.0008ZM77.6637 49.6863H75.9791V55.3559H77.6637C79.3484 55.3559 80.1347 54.0892 80.1347 52.5515C80.1347 51.0137 79.3484 49.6863 77.6637 49.6863ZM103.101 59.622L102.933 60.23C102.653 61.3269 102.314 61.693 100.182 61.693H99.7884C98.2157 61.693 97.9357 61.313 97.9357 59.0102V57.4864C100.292 57.4864 100.463 57.7309 100.463 59.4371H101.023V54.5604H100.463C100.463 56.2679 100.295 56.5111 97.9357 56.5111V52.858H99.5644C101.699 52.858 102.035 53.238 102.315 54.321L102.483 54.929H102.989L102.763 51.8814H93.9481V52.4894C95.6327 52.4894 95.9127 52.8694 95.9127 55.1722V59.318C95.9127 61.4511 95.6875 62.0008 94.34 62.0616C93.1034 61.8792 92.2051 61.0863 91.0267 59.6841L89.6232 58.0374C91.4759 57.6574 92.4874 56.3907 92.4874 54.9898C92.4874 53.2215 91.0839 51.8193 88.4449 51.8193H83.1669V52.4273C84.8516 52.4273 85.1316 52.8073 85.1316 55.1101V59.2559C85.1316 61.5739 84.8516 61.9995 83.1669 61.9995V62.6075H89.1192V61.9995C87.4346 61.9995 87.1546 61.5727 87.1546 59.2559V58.0982H87.6597L90.973 62.6075H103.326L103.494 59.5599H103.101V59.622ZM87.2105 57.1229V52.7947H88.4472C89.7947 52.7947 90.4119 53.8308 90.4119 54.9898C90.4119 56.1488 89.7935 57.1229 88.4472 57.1229H87.2105Z" fill="#D7FFC6"/>
<path d="M109.221 63.099C108.042 63.099 106.975 62.4277 106.537 62.0021C106.369 62.1845 106.144 62.6734 106.032 63.099H105.472V58.5897H106.09C106.316 60.7227 107.719 62.0033 109.46 62.0033C110.414 62.0033 111.201 61.3953 111.201 60.42C111.201 59.5663 110.526 58.8962 109.292 58.2869L107.607 57.4332C106.429 56.8252 105.531 55.7257 105.531 54.3235C105.531 52.7402 106.878 51.4102 108.731 51.4102C109.741 51.4102 110.583 51.7775 111.087 52.2639C111.255 52.1423 111.367 51.7763 111.481 51.4102H112.041V55.2507H111.422C111.197 53.7269 110.412 52.4463 108.839 52.4463C107.997 52.4463 107.21 52.9948 107.21 53.789C107.21 54.6427 107.829 55.0683 109.287 55.8005L110.916 56.6542C112.374 57.3863 112.938 58.6049 112.938 59.5675C112.882 61.6398 111.253 63.1015 109.232 63.1015L109.221 63.099Z" fill="#D7FFC6"/>
<path d="M118.487 63.099C117.308 63.099 116.241 62.4277 115.803 62.0021C115.635 62.1845 115.41 62.6734 115.298 63.099H114.738V58.5897H115.357C115.582 60.7227 116.985 62.0033 118.726 62.0033C119.68 62.0033 120.467 61.3953 120.467 60.42C120.467 59.5663 119.792 58.8962 118.558 58.2869L116.873 57.4332C115.695 56.8252 114.797 55.7257 114.797 54.3235C114.797 52.7402 116.144 51.4102 117.997 51.4102C119.007 51.4102 119.849 51.7775 120.353 52.2639C120.521 52.1423 120.633 51.7763 120.747 51.4102H121.307V55.2507H120.688C120.463 53.7269 119.678 52.4463 118.105 52.4463C117.263 52.4463 116.477 52.9948 116.477 53.789C116.477 54.6427 117.095 55.0683 118.553 55.8005L120.182 56.6542C121.64 57.3863 122.204 58.6049 122.204 59.5675C122.148 61.6398 120.519 63.1015 118.498 63.1015L118.487 63.099Z" fill="#D7FFC6"/>
<path d="M54.6031 24.681C54.6031 31.3107 58.1113 37.0234 63.2435 39.7037L55.9681 17.9107C55.1235 20.026 54.6031 22.2819 54.6031 24.681ZM80.3946 23.8323C80.3946 21.7867 79.6795 20.3059 79.095 19.247C78.3156 17.8359 77.6016 16.7073 77.6016 15.2975C77.6016 13.7459 78.7065 12.3335 80.1998 12.3335H80.3946C77.6646 9.5874 74.027 7.96353 70.0113 7.96353C64.619 8.03447 59.943 10.9959 57.1488 15.5103H58.123C59.747 15.5103 62.2156 15.2988 62.2156 15.2988C63.0603 15.2279 63.1256 16.568 62.3323 16.7099C62.3323 16.7099 61.4876 16.8365 60.5788 16.8365L66.1788 34.8929L69.5563 23.9615L67.153 16.8378L65.529 16.7111C64.6843 16.6402 64.8138 15.3001 65.5943 15.3001C65.5943 15.3001 68.1283 15.5116 69.6216 15.5116C71.2456 15.5116 73.7143 15.3001 73.7143 15.3001C74.559 15.2291 74.6243 16.5693 73.831 16.7111C73.831 16.7111 72.9863 16.8378 72.0775 16.8378L77.6775 34.8245L79.2361 29.2511C79.886 26.923 80.4051 25.3017 80.4051 23.8197L80.3946 23.8323ZM70.2598 26.163L65.648 40.6917C67.013 41.1147 68.5063 41.3972 69.9996 41.3972C71.8196 41.3972 73.5078 41.0451 75.133 40.4801C75.0676 40.4092 75.0676 40.3535 75.0163 40.2686L70.2598 26.163ZM83.5131 16.7137L83.6298 18.4059C83.6298 20.0982 83.3696 22.0033 82.4608 24.4011L77.7941 39.1413C82.3418 36.2495 85.4591 30.8889 85.4591 24.6823C85.3938 21.7905 84.6798 19.1089 83.5108 16.7124L83.5131 16.7137ZM69.9996 5.2136C60.125 5.2136 52.0703 13.9599 52.0703 24.6797C52.0703 35.3995 60.125 44.1471 69.9996 44.1471C79.8743 44.1471 87.929 35.4008 87.929 24.681C87.929 13.9612 79.8743 5.2136 69.9996 5.2136ZM69.9996 43.2997C60.58 43.2997 52.915 34.9777 52.915 24.6797C52.915 14.44 60.58 6.13067 69.9996 6.13067C79.4193 6.13067 87.0843 14.4527 87.0843 24.6797C87.0843 34.9777 79.4193 43.2997 69.9996 43.2997Z" fill="#D7FFC6"/>
</svg>
